<mxfile host="app.diagrams.net" modified="2024-05-07T15:00:28.774Z" agent="Mozilla/5.0 (Windows NT 10.0; Win64; x64) AppleWebKit/537.36 (KHTML, like Gecko) Chrome/124.0.0.0 Safari/537.36" etag="3UC6GxwSIGXJCDu0pxVY" version="24.3.1" type="device">
  <diagram name="‫עמוד-1‬" id="TzBRaIEQAyytvSw9Mdv-">
    <mxGraphModel dx="1961" dy="1758" grid="1" gridSize="10" guides="1" tooltips="1" connect="1" arrows="1" fold="1" page="1" pageScale="1" pageWidth="827" pageHeight="1169" math="0" shadow="0">
      <root>
        <mxCell id="0" />
        <mxCell id="1" parent="0" />
        <mxCell id="pJkwpibmYWs6iMc-g0Pl-85" style="edgeStyle=orthogonalEdgeStyle;rounded=0;orthogonalLoop=1;jettySize=auto;html=1;exitX=0.5;exitY=0;exitDx=0;exitDy=0;endArrow=diamondThin;endFill=1;strokeWidth=1;endSize=11;" parent="1" source="pJkwpibmYWs6iMc-g0Pl-5" target="pJkwpibmYWs6iMc-g0Pl-17" edge="1">
          <mxGeometry relative="1" as="geometry" />
        </mxCell>
        <mxCell id="pJkwpibmYWs6iMc-g0Pl-5" value="Product" style="swimlane;fontStyle=1;align=center;verticalAlign=top;childLayout=stackLayout;horizontal=1;startSize=26;horizontalStack=0;resizeParent=1;resizeParentMax=0;resizeLast=0;collapsible=1;marginBottom=0;whiteSpace=wrap;html=1;" parent="1" vertex="1">
          <mxGeometry x="700" y="1260" width="350" height="320" as="geometry" />
        </mxCell>
        <mxCell id="pJkwpibmYWs6iMc-g0Pl-6" value="- productId: int" style="text;strokeColor=none;fillColor=none;align=left;verticalAlign=top;spacingLeft=4;spacingRight=4;overflow=hidden;rotatable=0;points=[[0,0.5],[1,0.5]];portConstraint=eastwest;whiteSpace=wrap;html=1;" parent="pJkwpibmYWs6iMc-g0Pl-5" vertex="1">
          <mxGeometry y="26" width="350" height="26" as="geometry" />
        </mxCell>
        <mxCell id="pJkwpibmYWs6iMc-g0Pl-9" value="- productName: String" style="text;strokeColor=none;fillColor=none;align=left;verticalAlign=top;spacingLeft=4;spacingRight=4;overflow=hidden;rotatable=0;points=[[0,0.5],[1,0.5]];portConstraint=eastwest;whiteSpace=wrap;html=1;" parent="pJkwpibmYWs6iMc-g0Pl-5" vertex="1">
          <mxGeometry y="52" width="350" height="26" as="geometry" />
        </mxCell>
        <mxCell id="pJkwpibmYWs6iMc-g0Pl-10" value="- storeId: int" style="text;strokeColor=none;fillColor=none;align=left;verticalAlign=top;spacingLeft=4;spacingRight=4;overflow=hidden;rotatable=0;points=[[0,0.5],[1,0.5]];portConstraint=eastwest;whiteSpace=wrap;html=1;" parent="pJkwpibmYWs6iMc-g0Pl-5" vertex="1">
          <mxGeometry y="78" width="350" height="26" as="geometry" />
        </mxCell>
        <mxCell id="pJkwpibmYWs6iMc-g0Pl-11" value="- category: String" style="text;strokeColor=none;fillColor=none;align=left;verticalAlign=top;spacingLeft=4;spacingRight=4;overflow=hidden;rotatable=0;points=[[0,0.5],[1,0.5]];portConstraint=eastwest;whiteSpace=wrap;html=1;" parent="pJkwpibmYWs6iMc-g0Pl-5" vertex="1">
          <mxGeometry y="104" width="350" height="26" as="geometry" />
        </mxCell>
        <mxCell id="pJkwpibmYWs6iMc-g0Pl-12" value="- price: double" style="text;strokeColor=none;fillColor=none;align=left;verticalAlign=top;spacingLeft=4;spacingRight=4;overflow=hidden;rotatable=0;points=[[0,0.5],[1,0.5]];portConstraint=eastwest;whiteSpace=wrap;html=1;" parent="pJkwpibmYWs6iMc-g0Pl-5" vertex="1">
          <mxGeometry y="130" width="350" height="26" as="geometry" />
        </mxCell>
        <mxCell id="pJkwpibmYWs6iMc-g0Pl-13" value="- discount: double" style="text;strokeColor=none;fillColor=none;align=left;verticalAlign=top;spacingLeft=4;spacingRight=4;overflow=hidden;rotatable=0;points=[[0,0.5],[1,0.5]];portConstraint=eastwest;whiteSpace=wrap;html=1;" parent="pJkwpibmYWs6iMc-g0Pl-5" vertex="1">
          <mxGeometry y="156" width="350" height="26" as="geometry" />
        </mxCell>
        <mxCell id="pJkwpibmYWs6iMc-g0Pl-7" value="" style="line;strokeWidth=1;fillColor=none;align=left;verticalAlign=middle;spacingTop=-1;spacingLeft=3;spacingRight=3;rotatable=0;labelPosition=right;points=[];portConstraint=eastwest;strokeColor=inherit;" parent="pJkwpibmYWs6iMc-g0Pl-5" vertex="1">
          <mxGeometry y="182" width="350" height="8" as="geometry" />
        </mxCell>
        <mxCell id="pJkwpibmYWs6iMc-g0Pl-8" value="+ getters and setters" style="text;strokeColor=none;fillColor=none;align=left;verticalAlign=top;spacingLeft=4;spacingRight=4;overflow=hidden;rotatable=0;points=[[0,0.5],[1,0.5]];portConstraint=eastwest;whiteSpace=wrap;html=1;" parent="pJkwpibmYWs6iMc-g0Pl-5" vertex="1">
          <mxGeometry y="190" width="350" height="26" as="geometry" />
        </mxCell>
        <mxCell id="pJkwpibmYWs6iMc-g0Pl-15" value="+ calculateTotalPrice(): double" style="text;strokeColor=none;fillColor=none;align=left;verticalAlign=top;spacingLeft=4;spacingRight=4;overflow=hidden;rotatable=0;points=[[0,0.5],[1,0.5]];portConstraint=eastwest;whiteSpace=wrap;html=1;" parent="pJkwpibmYWs6iMc-g0Pl-5" vertex="1">
          <mxGeometry y="216" width="350" height="26" as="geometry" />
        </mxCell>
        <mxCell id="pJkwpibmYWs6iMc-g0Pl-16" value="+ updateQuantity(): void" style="text;strokeColor=none;fillColor=none;align=left;verticalAlign=top;spacingLeft=4;spacingRight=4;overflow=hidden;rotatable=0;points=[[0,0.5],[1,0.5]];portConstraint=eastwest;whiteSpace=wrap;html=1;" parent="pJkwpibmYWs6iMc-g0Pl-5" vertex="1">
          <mxGeometry y="242" width="350" height="26" as="geometry" />
        </mxCell>
        <mxCell id="pJkwpibmYWs6iMc-g0Pl-37" value="+ isAvailable(): bool" style="text;strokeColor=none;fillColor=none;align=left;verticalAlign=top;spacingLeft=4;spacingRight=4;overflow=hidden;rotatable=0;points=[[0,0.5],[1,0.5]];portConstraint=eastwest;whiteSpace=wrap;html=1;" parent="pJkwpibmYWs6iMc-g0Pl-5" vertex="1">
          <mxGeometry y="268" width="350" height="26" as="geometry" />
        </mxCell>
        <mxCell id="pJkwpibmYWs6iMc-g0Pl-14" value="- quantity: int" style="text;strokeColor=none;fillColor=none;align=left;verticalAlign=top;spacingLeft=4;spacingRight=4;overflow=hidden;rotatable=0;points=[[0,0.5],[1,0.5]];portConstraint=eastwest;whiteSpace=wrap;html=1;" parent="pJkwpibmYWs6iMc-g0Pl-5" vertex="1">
          <mxGeometry y="294" width="350" height="26" as="geometry" />
        </mxCell>
        <mxCell id="pJkwpibmYWs6iMc-g0Pl-84" style="edgeStyle=orthogonalEdgeStyle;rounded=0;orthogonalLoop=1;jettySize=auto;html=1;exitX=0.5;exitY=0;exitDx=0;exitDy=0;endArrow=diamondThin;endFill=1;startSize=6;endSize=11;" parent="1" source="pJkwpibmYWs6iMc-g0Pl-17" target="pJkwpibmYWs6iMc-g0Pl-82" edge="1">
          <mxGeometry relative="1" as="geometry" />
        </mxCell>
        <mxCell id="pJkwpibmYWs6iMc-g0Pl-17" value="Strore" style="swimlane;fontStyle=1;align=center;verticalAlign=top;childLayout=stackLayout;horizontal=1;startSize=26;horizontalStack=0;resizeParent=1;resizeParentMax=0;resizeLast=0;collapsible=1;marginBottom=0;whiteSpace=wrap;html=1;" parent="1" vertex="1">
          <mxGeometry x="1092" y="904" width="330" height="476" as="geometry" />
        </mxCell>
        <mxCell id="pJkwpibmYWs6iMc-g0Pl-18" value="- storeId: int" style="text;strokeColor=none;fillColor=none;align=left;verticalAlign=top;spacingLeft=4;spacingRight=4;overflow=hidden;rotatable=0;points=[[0,0.5],[1,0.5]];portConstraint=eastwest;whiteSpace=wrap;html=1;" parent="pJkwpibmYWs6iMc-g0Pl-17" vertex="1">
          <mxGeometry y="26" width="330" height="26" as="geometry" />
        </mxCell>
        <mxCell id="pJkwpibmYWs6iMc-g0Pl-19" value="- storeName: String" style="text;strokeColor=none;fillColor=none;align=left;verticalAlign=top;spacingLeft=4;spacingRight=4;overflow=hidden;rotatable=0;points=[[0,0.5],[1,0.5]];portConstraint=eastwest;whiteSpace=wrap;html=1;" parent="pJkwpibmYWs6iMc-g0Pl-17" vertex="1">
          <mxGeometry y="52" width="330" height="26" as="geometry" />
        </mxCell>
        <mxCell id="pJkwpibmYWs6iMc-g0Pl-20" value="- phoneNumber: String" style="text;strokeColor=none;fillColor=none;align=left;verticalAlign=top;spacingLeft=4;spacingRight=4;overflow=hidden;rotatable=0;points=[[0,0.5],[1,0.5]];portConstraint=eastwest;whiteSpace=wrap;html=1;" parent="pJkwpibmYWs6iMc-g0Pl-17" vertex="1">
          <mxGeometry y="78" width="330" height="26" as="geometry" />
        </mxCell>
        <mxCell id="pJkwpibmYWs6iMc-g0Pl-21" value="- email: String" style="text;strokeColor=none;fillColor=none;align=left;verticalAlign=top;spacingLeft=4;spacingRight=4;overflow=hidden;rotatable=0;points=[[0,0.5],[1,0.5]];portConstraint=eastwest;whiteSpace=wrap;html=1;" parent="pJkwpibmYWs6iMc-g0Pl-17" vertex="1">
          <mxGeometry y="104" width="330" height="26" as="geometry" />
        </mxCell>
        <mxCell id="pJkwpibmYWs6iMc-g0Pl-29" value="- isOpen: bool" style="text;strokeColor=none;fillColor=none;align=left;verticalAlign=top;spacingLeft=4;spacingRight=4;overflow=hidden;rotatable=0;points=[[0,0.5],[1,0.5]];portConstraint=eastwest;whiteSpace=wrap;html=1;" parent="pJkwpibmYWs6iMc-g0Pl-17" vertex="1">
          <mxGeometry y="130" width="330" height="26" as="geometry" />
        </mxCell>
        <mxCell id="pJkwpibmYWs6iMc-g0Pl-25" value="" style="line;strokeWidth=1;fillColor=none;align=left;verticalAlign=middle;spacingTop=-1;spacingLeft=3;spacingRight=3;rotatable=0;labelPosition=right;points=[];portConstraint=eastwest;strokeColor=inherit;" parent="pJkwpibmYWs6iMc-g0Pl-17" vertex="1">
          <mxGeometry y="156" width="330" height="8" as="geometry" />
        </mxCell>
        <mxCell id="pJkwpibmYWs6iMc-g0Pl-26" value="+ getters and setters" style="text;strokeColor=none;fillColor=none;align=left;verticalAlign=top;spacingLeft=4;spacingRight=4;overflow=hidden;rotatable=0;points=[[0,0.5],[1,0.5]];portConstraint=eastwest;whiteSpace=wrap;html=1;" parent="pJkwpibmYWs6iMc-g0Pl-17" vertex="1">
          <mxGeometry y="164" width="330" height="26" as="geometry" />
        </mxCell>
        <mxCell id="pJkwpibmYWs6iMc-g0Pl-27" value="+ addProduct(): void" style="text;strokeColor=none;fillColor=none;align=left;verticalAlign=top;spacingLeft=4;spacingRight=4;overflow=hidden;rotatable=0;points=[[0,0.5],[1,0.5]];portConstraint=eastwest;whiteSpace=wrap;html=1;" parent="pJkwpibmYWs6iMc-g0Pl-17" vertex="1">
          <mxGeometry y="190" width="330" height="26" as="geometry" />
        </mxCell>
        <mxCell id="pJkwpibmYWs6iMc-g0Pl-28" value="+ removeProduct(): void" style="text;strokeColor=none;fillColor=none;align=left;verticalAlign=top;spacingLeft=4;spacingRight=4;overflow=hidden;rotatable=0;points=[[0,0.5],[1,0.5]];portConstraint=eastwest;whiteSpace=wrap;html=1;" parent="pJkwpibmYWs6iMc-g0Pl-17" vertex="1">
          <mxGeometry y="216" width="330" height="26" as="geometry" />
        </mxCell>
        <mxCell id="pJkwpibmYWs6iMc-g0Pl-30" value="+ openStore(): void" style="text;strokeColor=none;fillColor=none;align=left;verticalAlign=top;spacingLeft=4;spacingRight=4;overflow=hidden;rotatable=0;points=[[0,0.5],[1,0.5]];portConstraint=eastwest;whiteSpace=wrap;html=1;" parent="pJkwpibmYWs6iMc-g0Pl-17" vertex="1">
          <mxGeometry y="242" width="330" height="26" as="geometry" />
        </mxCell>
        <mxCell id="pJkwpibmYWs6iMc-g0Pl-31" value="+ closeStrore(): void" style="text;strokeColor=none;fillColor=none;align=left;verticalAlign=top;spacingLeft=4;spacingRight=4;overflow=hidden;rotatable=0;points=[[0,0.5],[1,0.5]];portConstraint=eastwest;whiteSpace=wrap;html=1;" parent="pJkwpibmYWs6iMc-g0Pl-17" vertex="1">
          <mxGeometry y="268" width="330" height="26" as="geometry" />
        </mxCell>
        <mxCell id="pJkwpibmYWs6iMc-g0Pl-32" value="+ updateProductPrice(): void" style="text;strokeColor=none;fillColor=none;align=left;verticalAlign=top;spacingLeft=4;spacingRight=4;overflow=hidden;rotatable=0;points=[[0,0.5],[1,0.5]];portConstraint=eastwest;whiteSpace=wrap;html=1;" parent="pJkwpibmYWs6iMc-g0Pl-17" vertex="1">
          <mxGeometry y="294" width="330" height="26" as="geometry" />
        </mxCell>
        <mxCell id="pJkwpibmYWs6iMc-g0Pl-33" value="+ updateProductDiscount(): void" style="text;strokeColor=none;fillColor=none;align=left;verticalAlign=top;spacingLeft=4;spacingRight=4;overflow=hidden;rotatable=0;points=[[0,0.5],[1,0.5]];portConstraint=eastwest;whiteSpace=wrap;html=1;" parent="pJkwpibmYWs6iMc-g0Pl-17" vertex="1">
          <mxGeometry y="320" width="330" height="26" as="geometry" />
        </mxCell>
        <mxCell id="pJkwpibmYWs6iMc-g0Pl-34" value="+ updateProductQuantity(): void" style="text;strokeColor=none;fillColor=none;align=left;verticalAlign=top;spacingLeft=4;spacingRight=4;overflow=hidden;rotatable=0;points=[[0,0.5],[1,0.5]];portConstraint=eastwest;whiteSpace=wrap;html=1;" parent="pJkwpibmYWs6iMc-g0Pl-17" vertex="1">
          <mxGeometry y="346" width="330" height="26" as="geometry" />
        </mxCell>
        <mxCell id="pJkwpibmYWs6iMc-g0Pl-35" value="+ purchaseCart(): bool" style="text;strokeColor=none;fillColor=none;align=left;verticalAlign=top;spacingLeft=4;spacingRight=4;overflow=hidden;rotatable=0;points=[[0,0.5],[1,0.5]];portConstraint=eastwest;whiteSpace=wrap;html=1;" parent="pJkwpibmYWs6iMc-g0Pl-17" vertex="1">
          <mxGeometry y="372" width="330" height="26" as="geometry" />
        </mxCell>
        <mxCell id="pJkwpibmYWs6iMc-g0Pl-36" value="+ checkCart(): bool" style="text;strokeColor=none;fillColor=none;align=left;verticalAlign=top;spacingLeft=4;spacingRight=4;overflow=hidden;rotatable=0;points=[[0,0.5],[1,0.5]];portConstraint=eastwest;whiteSpace=wrap;html=1;" parent="pJkwpibmYWs6iMc-g0Pl-17" vertex="1">
          <mxGeometry y="398" width="330" height="26" as="geometry" />
        </mxCell>
        <mxCell id="pJkwpibmYWs6iMc-g0Pl-60" value="+ addStaffMember(): void" style="text;strokeColor=none;fillColor=none;align=left;verticalAlign=top;spacingLeft=4;spacingRight=4;overflow=hidden;rotatable=0;points=[[0,0.5],[1,0.5]];portConstraint=eastwest;whiteSpace=wrap;html=1;" parent="pJkwpibmYWs6iMc-g0Pl-17" vertex="1">
          <mxGeometry y="424" width="330" height="26" as="geometry" />
        </mxCell>
        <mxCell id="pJkwpibmYWs6iMc-g0Pl-61" value="+ removeStaffMember(): void" style="text;strokeColor=none;fillColor=none;align=left;verticalAlign=top;spacingLeft=4;spacingRight=4;overflow=hidden;rotatable=0;points=[[0,0.5],[1,0.5]];portConstraint=eastwest;whiteSpace=wrap;html=1;" parent="pJkwpibmYWs6iMc-g0Pl-17" vertex="1">
          <mxGeometry y="450" width="330" height="26" as="geometry" />
        </mxCell>
        <mxCell id="pJkwpibmYWs6iMc-g0Pl-38" value="&lt;span style=&quot;font-weight: normal;&quot;&gt;&amp;lt;&amp;lt;interface&amp;gt;&amp;gt;&lt;/span&gt;&lt;div&gt;IMarketFacade&lt;/div&gt;" style="swimlane;fontStyle=1;align=center;verticalAlign=top;childLayout=stackLayout;horizontal=1;startSize=40;horizontalStack=0;resizeParent=1;resizeParentMax=0;resizeLast=0;collapsible=1;marginBottom=0;whiteSpace=wrap;html=1;" parent="1" vertex="1">
          <mxGeometry x="1092" y="314" width="330" height="464" as="geometry" />
        </mxCell>
        <mxCell id="pJkwpibmYWs6iMc-g0Pl-46" value="" style="line;strokeWidth=1;fillColor=none;align=left;verticalAlign=middle;spacingTop=-1;spacingLeft=3;spacingRight=3;rotatable=0;labelPosition=right;points=[];portConstraint=eastwest;strokeColor=inherit;" parent="pJkwpibmYWs6iMc-g0Pl-38" vertex="1">
          <mxGeometry y="40" width="330" height="8" as="geometry" />
        </mxCell>
        <mxCell id="pJkwpibmYWs6iMc-g0Pl-65" value="+ addProduct(): void" style="text;strokeColor=none;fillColor=none;align=left;verticalAlign=top;spacingLeft=4;spacingRight=4;overflow=hidden;rotatable=0;points=[[0,0.5],[1,0.5]];portConstraint=eastwest;whiteSpace=wrap;html=1;" parent="pJkwpibmYWs6iMc-g0Pl-38" vertex="1">
          <mxGeometry y="48" width="330" height="26" as="geometry" />
        </mxCell>
        <mxCell id="pJkwpibmYWs6iMc-g0Pl-74" value="+ editProfuct(): void" style="text;strokeColor=none;fillColor=none;align=left;verticalAlign=top;spacingLeft=4;spacingRight=4;overflow=hidden;rotatable=0;points=[[0,0.5],[1,0.5]];portConstraint=eastwest;whiteSpace=wrap;html=1;" parent="pJkwpibmYWs6iMc-g0Pl-38" vertex="1">
          <mxGeometry y="74" width="330" height="26" as="geometry" />
        </mxCell>
        <mxCell id="EJYcgfiYVMfYpFsEXXHh-32" value="+ removeStaffMember(): void" style="text;strokeColor=none;fillColor=none;align=left;verticalAlign=top;spacingLeft=4;spacingRight=4;overflow=hidden;rotatable=0;points=[[0,0.5],[1,0.5]];portConstraint=eastwest;whiteSpace=wrap;html=1;" vertex="1" parent="pJkwpibmYWs6iMc-g0Pl-38">
          <mxGeometry y="100" width="330" height="26" as="geometry" />
        </mxCell>
        <mxCell id="pJkwpibmYWs6iMc-g0Pl-73" value="+ addStaffMember(): void" style="text;strokeColor=none;fillColor=none;align=left;verticalAlign=top;spacingLeft=4;spacingRight=4;overflow=hidden;rotatable=0;points=[[0,0.5],[1,0.5]];portConstraint=eastwest;whiteSpace=wrap;html=1;" parent="pJkwpibmYWs6iMc-g0Pl-38" vertex="1">
          <mxGeometry y="126" width="330" height="26" as="geometry" />
        </mxCell>
        <mxCell id="pJkwpibmYWs6iMc-g0Pl-72" value="+ checkCart(): bool" style="text;strokeColor=none;fillColor=none;align=left;verticalAlign=top;spacingLeft=4;spacingRight=4;overflow=hidden;rotatable=0;points=[[0,0.5],[1,0.5]];portConstraint=eastwest;whiteSpace=wrap;html=1;" parent="pJkwpibmYWs6iMc-g0Pl-38" vertex="1">
          <mxGeometry y="152" width="330" height="26" as="geometry" />
        </mxCell>
        <mxCell id="pJkwpibmYWs6iMc-g0Pl-71" value="+ purchaseCart(): bool" style="text;strokeColor=none;fillColor=none;align=left;verticalAlign=top;spacingLeft=4;spacingRight=4;overflow=hidden;rotatable=0;points=[[0,0.5],[1,0.5]];portConstraint=eastwest;whiteSpace=wrap;html=1;" parent="pJkwpibmYWs6iMc-g0Pl-38" vertex="1">
          <mxGeometry y="178" width="330" height="26" as="geometry" />
        </mxCell>
        <mxCell id="pJkwpibmYWs6iMc-g0Pl-70" value="+ updateProductQuantity(): void" style="text;strokeColor=none;fillColor=none;align=left;verticalAlign=top;spacingLeft=4;spacingRight=4;overflow=hidden;rotatable=0;points=[[0,0.5],[1,0.5]];portConstraint=eastwest;whiteSpace=wrap;html=1;" parent="pJkwpibmYWs6iMc-g0Pl-38" vertex="1">
          <mxGeometry y="204" width="330" height="26" as="geometry" />
        </mxCell>
        <mxCell id="pJkwpibmYWs6iMc-g0Pl-69" value="+ updateProductPrice(): void" style="text;strokeColor=none;fillColor=none;align=left;verticalAlign=top;spacingLeft=4;spacingRight=4;overflow=hidden;rotatable=0;points=[[0,0.5],[1,0.5]];portConstraint=eastwest;whiteSpace=wrap;html=1;" parent="pJkwpibmYWs6iMc-g0Pl-38" vertex="1">
          <mxGeometry y="230" width="330" height="26" as="geometry" />
        </mxCell>
        <mxCell id="pJkwpibmYWs6iMc-g0Pl-68" value="+ closeStrore(): void" style="text;strokeColor=none;fillColor=none;align=left;verticalAlign=top;spacingLeft=4;spacingRight=4;overflow=hidden;rotatable=0;points=[[0,0.5],[1,0.5]];portConstraint=eastwest;whiteSpace=wrap;html=1;" parent="pJkwpibmYWs6iMc-g0Pl-38" vertex="1">
          <mxGeometry y="256" width="330" height="26" as="geometry" />
        </mxCell>
        <mxCell id="pJkwpibmYWs6iMc-g0Pl-67" value="+ openStore(): void" style="text;strokeColor=none;fillColor=none;align=left;verticalAlign=top;spacingLeft=4;spacingRight=4;overflow=hidden;rotatable=0;points=[[0,0.5],[1,0.5]];portConstraint=eastwest;whiteSpace=wrap;html=1;" parent="pJkwpibmYWs6iMc-g0Pl-38" vertex="1">
          <mxGeometry y="282" width="330" height="26" as="geometry" />
        </mxCell>
        <mxCell id="pJkwpibmYWs6iMc-g0Pl-77" value="+ isAvailable(): bool" style="text;strokeColor=none;fillColor=none;align=left;verticalAlign=top;spacingLeft=4;spacingRight=4;overflow=hidden;rotatable=0;points=[[0,0.5],[1,0.5]];portConstraint=eastwest;whiteSpace=wrap;html=1;" parent="pJkwpibmYWs6iMc-g0Pl-38" vertex="1">
          <mxGeometry y="308" width="330" height="26" as="geometry" />
        </mxCell>
        <mxCell id="pJkwpibmYWs6iMc-g0Pl-76" value="+ updateQuantity(): void" style="text;strokeColor=none;fillColor=none;align=left;verticalAlign=top;spacingLeft=4;spacingRight=4;overflow=hidden;rotatable=0;points=[[0,0.5],[1,0.5]];portConstraint=eastwest;whiteSpace=wrap;html=1;" parent="pJkwpibmYWs6iMc-g0Pl-38" vertex="1">
          <mxGeometry y="334" width="330" height="26" as="geometry" />
        </mxCell>
        <mxCell id="pJkwpibmYWs6iMc-g0Pl-75" value="+ calculateTotalPrice(): double" style="text;strokeColor=none;fillColor=none;align=left;verticalAlign=top;spacingLeft=4;spacingRight=4;overflow=hidden;rotatable=0;points=[[0,0.5],[1,0.5]];portConstraint=eastwest;whiteSpace=wrap;html=1;" parent="pJkwpibmYWs6iMc-g0Pl-38" vertex="1">
          <mxGeometry y="360" width="330" height="26" as="geometry" />
        </mxCell>
        <mxCell id="pJkwpibmYWs6iMc-g0Pl-66" value="+ removeProduct(): void" style="text;strokeColor=none;fillColor=none;align=left;verticalAlign=top;spacingLeft=4;spacingRight=4;overflow=hidden;rotatable=0;points=[[0,0.5],[1,0.5]];portConstraint=eastwest;whiteSpace=wrap;html=1;" parent="pJkwpibmYWs6iMc-g0Pl-38" vertex="1">
          <mxGeometry y="386" width="330" height="26" as="geometry" />
        </mxCell>
        <mxCell id="EJYcgfiYVMfYpFsEXXHh-29" value="+ createStore(): void" style="text;strokeColor=none;fillColor=none;align=left;verticalAlign=top;spacingLeft=4;spacingRight=4;overflow=hidden;rotatable=0;points=[[0,0.5],[1,0.5]];portConstraint=eastwest;whiteSpace=wrap;html=1;" vertex="1" parent="pJkwpibmYWs6iMc-g0Pl-38">
          <mxGeometry y="412" width="330" height="26" as="geometry" />
        </mxCell>
        <mxCell id="EJYcgfiYVMfYpFsEXXHh-36" value="+ getPurchaseHistory(): List" style="text;strokeColor=none;fillColor=none;align=left;verticalAlign=top;spacingLeft=4;spacingRight=4;overflow=hidden;rotatable=0;points=[[0,0.5],[1,0.5]];portConstraint=eastwest;whiteSpace=wrap;html=1;" vertex="1" parent="pJkwpibmYWs6iMc-g0Pl-38">
          <mxGeometry y="438" width="330" height="26" as="geometry" />
        </mxCell>
        <mxCell id="pJkwpibmYWs6iMc-g0Pl-83" style="edgeStyle=orthogonalEdgeStyle;rounded=0;orthogonalLoop=1;jettySize=auto;html=1;exitX=0.5;exitY=0;exitDx=0;exitDy=0;dashed=1;dashPattern=8 8;endArrow=block;endFill=0;" parent="1" source="pJkwpibmYWs6iMc-g0Pl-82" target="pJkwpibmYWs6iMc-g0Pl-38" edge="1">
          <mxGeometry relative="1" as="geometry" />
        </mxCell>
        <mxCell id="pJkwpibmYWs6iMc-g0Pl-82" value="&lt;p style=&quot;margin:0px;margin-top:4px;text-align:center;&quot;&gt;&lt;b&gt;MarketFacade&lt;/b&gt;&lt;/p&gt;&lt;hr size=&quot;1&quot; style=&quot;border-style:solid;&quot;&gt;&lt;div style=&quot;height:2px;&quot;&gt;&lt;/div&gt;" style="verticalAlign=top;align=left;overflow=fill;html=1;whiteSpace=wrap;" parent="1" vertex="1">
          <mxGeometry x="1092" y="784" width="330" height="60" as="geometry" />
        </mxCell>
        <mxCell id="pJkwpibmYWs6iMc-g0Pl-86" value="&lt;div&gt;&lt;span style=&quot;font-weight: normal;&quot;&gt;&amp;lt;&amp;lt;abstract class&amp;gt;&amp;gt;&lt;/span&gt;&lt;/div&gt;Alert" style="swimlane;fontStyle=1;align=center;verticalAlign=top;childLayout=stackLayout;horizontal=1;startSize=40;horizontalStack=0;resizeParent=1;resizeParentMax=0;resizeLast=0;collapsible=1;marginBottom=0;whiteSpace=wrap;html=1;" parent="1" vertex="1">
          <mxGeometry x="1970" y="490" width="330" height="230" as="geometry" />
        </mxCell>
        <mxCell id="pJkwpibmYWs6iMc-g0Pl-87" value="- userIdDest: int" style="text;strokeColor=none;fillColor=none;align=left;verticalAlign=top;spacingLeft=4;spacingRight=4;overflow=hidden;rotatable=0;points=[[0,0.5],[1,0.5]];portConstraint=eastwest;whiteSpace=wrap;html=1;" parent="pJkwpibmYWs6iMc-g0Pl-86" vertex="1">
          <mxGeometry y="40" width="330" height="26" as="geometry" />
        </mxCell>
        <mxCell id="pJkwpibmYWs6iMc-g0Pl-92" value="- isSent: bool" style="text;strokeColor=none;fillColor=none;align=left;verticalAlign=top;spacingLeft=4;spacingRight=4;overflow=hidden;rotatable=0;points=[[0,0.5],[1,0.5]];portConstraint=eastwest;whiteSpace=wrap;html=1;" parent="pJkwpibmYWs6iMc-g0Pl-86" vertex="1">
          <mxGeometry y="66" width="330" height="26" as="geometry" />
        </mxCell>
        <mxCell id="pJkwpibmYWs6iMc-g0Pl-93" value="- isRead: bool" style="text;strokeColor=none;fillColor=none;align=left;verticalAlign=top;spacingLeft=4;spacingRight=4;overflow=hidden;rotatable=0;points=[[0,0.5],[1,0.5]];portConstraint=eastwest;whiteSpace=wrap;html=1;" parent="pJkwpibmYWs6iMc-g0Pl-86" vertex="1">
          <mxGeometry y="92" width="330" height="26" as="geometry" />
        </mxCell>
        <mxCell id="pJkwpibmYWs6iMc-g0Pl-88" value="" style="line;strokeWidth=1;fillColor=none;align=left;verticalAlign=middle;spacingTop=-1;spacingLeft=3;spacingRight=3;rotatable=0;labelPosition=right;points=[];portConstraint=eastwest;strokeColor=inherit;" parent="pJkwpibmYWs6iMc-g0Pl-86" vertex="1">
          <mxGeometry y="118" width="330" height="8" as="geometry" />
        </mxCell>
        <mxCell id="pJkwpibmYWs6iMc-g0Pl-89" value="+ sendMessageOnLine(): void" style="text;strokeColor=none;fillColor=none;align=left;verticalAlign=top;spacingLeft=4;spacingRight=4;overflow=hidden;rotatable=0;points=[[0,0.5],[1,0.5]];portConstraint=eastwest;whiteSpace=wrap;html=1;" parent="pJkwpibmYWs6iMc-g0Pl-86" vertex="1">
          <mxGeometry y="126" width="330" height="26" as="geometry" />
        </mxCell>
        <mxCell id="pJkwpibmYWs6iMc-g0Pl-90" value="+ sendMessageOffLine(): void" style="text;strokeColor=none;fillColor=none;align=left;verticalAlign=top;spacingLeft=4;spacingRight=4;overflow=hidden;rotatable=0;points=[[0,0.5],[1,0.5]];portConstraint=eastwest;whiteSpace=wrap;html=1;" parent="pJkwpibmYWs6iMc-g0Pl-86" vertex="1">
          <mxGeometry y="152" width="330" height="26" as="geometry" />
        </mxCell>
        <mxCell id="pJkwpibmYWs6iMc-g0Pl-91" value="+ sendMessageTrigger(): void" style="text;strokeColor=none;fillColor=none;align=left;verticalAlign=top;spacingLeft=4;spacingRight=4;overflow=hidden;rotatable=0;points=[[0,0.5],[1,0.5]];portConstraint=eastwest;whiteSpace=wrap;html=1;" parent="pJkwpibmYWs6iMc-g0Pl-86" vertex="1">
          <mxGeometry y="178" width="330" height="26" as="geometry" />
        </mxCell>
        <mxCell id="pJkwpibmYWs6iMc-g0Pl-102" value="+ makeMessage(): void" style="text;strokeColor=none;fillColor=none;align=left;verticalAlign=top;spacingLeft=4;spacingRight=4;overflow=hidden;rotatable=0;points=[[0,0.5],[1,0.5]];portConstraint=eastwest;whiteSpace=wrap;html=1;" parent="pJkwpibmYWs6iMc-g0Pl-86" vertex="1">
          <mxGeometry y="204" width="330" height="26" as="geometry" />
        </mxCell>
        <mxCell id="pJkwpibmYWs6iMc-g0Pl-109" style="edgeStyle=orthogonalEdgeStyle;rounded=0;orthogonalLoop=1;jettySize=auto;html=1;exitX=0.5;exitY=0;exitDx=0;exitDy=0;" parent="1" source="pJkwpibmYWs6iMc-g0Pl-94" target="pJkwpibmYWs6iMc-g0Pl-86" edge="1">
          <mxGeometry relative="1" as="geometry" />
        </mxCell>
        <mxCell id="pJkwpibmYWs6iMc-g0Pl-94" value="&lt;div&gt;&lt;span style=&quot;background-color: initial;&quot;&gt;StoreSourceAlert&lt;/span&gt;&lt;br&gt;&lt;/div&gt;" style="swimlane;fontStyle=1;align=center;verticalAlign=top;childLayout=stackLayout;horizontal=1;startSize=30;horizontalStack=0;resizeParent=1;resizeParentMax=0;resizeLast=0;collapsible=1;marginBottom=0;whiteSpace=wrap;html=1;" parent="1" vertex="1">
          <mxGeometry x="1750" y="810" width="330" height="90" as="geometry" />
        </mxCell>
        <mxCell id="pJkwpibmYWs6iMc-g0Pl-95" value="- stroeIdSource: int" style="text;strokeColor=none;fillColor=none;align=left;verticalAlign=top;spacingLeft=4;spacingRight=4;overflow=hidden;rotatable=0;points=[[0,0.5],[1,0.5]];portConstraint=eastwest;whiteSpace=wrap;html=1;" parent="pJkwpibmYWs6iMc-g0Pl-94" vertex="1">
          <mxGeometry y="30" width="330" height="26" as="geometry" />
        </mxCell>
        <mxCell id="pJkwpibmYWs6iMc-g0Pl-98" value="" style="line;strokeWidth=1;fillColor=none;align=left;verticalAlign=middle;spacingTop=-1;spacingLeft=3;spacingRight=3;rotatable=0;labelPosition=right;points=[];portConstraint=eastwest;strokeColor=inherit;" parent="pJkwpibmYWs6iMc-g0Pl-94" vertex="1">
          <mxGeometry y="56" width="330" height="8" as="geometry" />
        </mxCell>
        <mxCell id="pJkwpibmYWs6iMc-g0Pl-103" value="+ makeMessage(): void" style="text;strokeColor=none;fillColor=none;align=left;verticalAlign=top;spacingLeft=4;spacingRight=4;overflow=hidden;rotatable=0;points=[[0,0.5],[1,0.5]];portConstraint=eastwest;whiteSpace=wrap;html=1;" parent="pJkwpibmYWs6iMc-g0Pl-94" vertex="1">
          <mxGeometry y="64" width="330" height="26" as="geometry" />
        </mxCell>
        <mxCell id="pJkwpibmYWs6iMc-g0Pl-108" style="edgeStyle=orthogonalEdgeStyle;rounded=0;orthogonalLoop=1;jettySize=auto;html=1;exitX=0.5;exitY=0;exitDx=0;exitDy=0;" parent="1" source="pJkwpibmYWs6iMc-g0Pl-104" target="pJkwpibmYWs6iMc-g0Pl-86" edge="1">
          <mxGeometry relative="1" as="geometry" />
        </mxCell>
        <mxCell id="pJkwpibmYWs6iMc-g0Pl-104" value="&lt;div&gt;&lt;span style=&quot;background-color: initial;&quot;&gt;PrivateSourceAlert&lt;/span&gt;&lt;br&gt;&lt;/div&gt;" style="swimlane;fontStyle=1;align=center;verticalAlign=top;childLayout=stackLayout;horizontal=1;startSize=30;horizontalStack=0;resizeParent=1;resizeParentMax=0;resizeLast=0;collapsible=1;marginBottom=0;whiteSpace=wrap;html=1;" parent="1" vertex="1">
          <mxGeometry x="2120" y="810" width="330" height="90" as="geometry" />
        </mxCell>
        <mxCell id="pJkwpibmYWs6iMc-g0Pl-105" value="- stroeIdSource: int" style="text;strokeColor=none;fillColor=none;align=left;verticalAlign=top;spacingLeft=4;spacingRight=4;overflow=hidden;rotatable=0;points=[[0,0.5],[1,0.5]];portConstraint=eastwest;whiteSpace=wrap;html=1;" parent="pJkwpibmYWs6iMc-g0Pl-104" vertex="1">
          <mxGeometry y="30" width="330" height="26" as="geometry" />
        </mxCell>
        <mxCell id="pJkwpibmYWs6iMc-g0Pl-106" value="" style="line;strokeWidth=1;fillColor=none;align=left;verticalAlign=middle;spacingTop=-1;spacingLeft=3;spacingRight=3;rotatable=0;labelPosition=right;points=[];portConstraint=eastwest;strokeColor=inherit;" parent="pJkwpibmYWs6iMc-g0Pl-104" vertex="1">
          <mxGeometry y="56" width="330" height="8" as="geometry" />
        </mxCell>
        <mxCell id="pJkwpibmYWs6iMc-g0Pl-107" value="+ makeMessage(): void" style="text;strokeColor=none;fillColor=none;align=left;verticalAlign=top;spacingLeft=4;spacingRight=4;overflow=hidden;rotatable=0;points=[[0,0.5],[1,0.5]];portConstraint=eastwest;whiteSpace=wrap;html=1;" parent="pJkwpibmYWs6iMc-g0Pl-104" vertex="1">
          <mxGeometry y="64" width="330" height="26" as="geometry" />
        </mxCell>
        <mxCell id="FDom4B-1fI0kme8VLFCk-1" value="&lt;span style=&quot;font-weight: 400;&quot;&gt;SupplyManager&lt;/span&gt;&lt;div&gt;&lt;/div&gt;" style="swimlane;fontStyle=1;align=center;verticalAlign=top;childLayout=stackLayout;horizontal=1;startSize=40;horizontalStack=0;resizeParent=1;resizeParentMax=0;resizeLast=0;collapsible=1;marginBottom=0;whiteSpace=wrap;html=1;" parent="1" vertex="1">
          <mxGeometry x="-225" y="562" width="330" height="230" as="geometry" />
        </mxCell>
        <mxCell id="FDom4B-1fI0kme8VLFCk-2" value="- systemToken" style="text;strokeColor=none;fillColor=none;align=left;verticalAlign=top;spacingLeft=4;spacingRight=4;overflow=hidden;rotatable=0;points=[[0,0.5],[1,0.5]];portConstraint=eastwest;whiteSpace=wrap;html=1;" parent="FDom4B-1fI0kme8VLFCk-1" vertex="1">
          <mxGeometry y="40" width="330" height="26" as="geometry" />
        </mxCell>
        <mxCell id="FDom4B-1fI0kme8VLFCk-5" value="" style="line;strokeWidth=1;fillColor=none;align=left;verticalAlign=middle;spacingTop=-1;spacingLeft=3;spacingRight=3;rotatable=0;labelPosition=right;points=[];portConstraint=eastwest;strokeColor=inherit;" parent="FDom4B-1fI0kme8VLFCk-1" vertex="1">
          <mxGeometry y="66" width="330" height="8" as="geometry" />
        </mxCell>
        <mxCell id="FDom4B-1fI0kme8VLFCk-6" value="+ connect(): bool" style="text;strokeColor=none;fillColor=none;align=left;verticalAlign=top;spacingLeft=4;spacingRight=4;overflow=hidden;rotatable=0;points=[[0,0.5],[1,0.5]];portConstraint=eastwest;whiteSpace=wrap;html=1;" parent="FDom4B-1fI0kme8VLFCk-1" vertex="1">
          <mxGeometry y="74" width="330" height="26" as="geometry" />
        </mxCell>
        <mxCell id="FDom4B-1fI0kme8VLFCk-7" value="+ dissconnect(): bool" style="text;strokeColor=none;fillColor=none;align=left;verticalAlign=top;spacingLeft=4;spacingRight=4;overflow=hidden;rotatable=0;points=[[0,0.5],[1,0.5]];portConstraint=eastwest;whiteSpace=wrap;html=1;" parent="FDom4B-1fI0kme8VLFCk-1" vertex="1">
          <mxGeometry y="100" width="330" height="26" as="geometry" />
        </mxCell>
        <mxCell id="FDom4B-1fI0kme8VLFCk-8" value="+ createDelivery(): bool" style="text;strokeColor=none;fillColor=none;align=left;verticalAlign=top;spacingLeft=4;spacingRight=4;overflow=hidden;rotatable=0;points=[[0,0.5],[1,0.5]];portConstraint=eastwest;whiteSpace=wrap;html=1;" parent="FDom4B-1fI0kme8VLFCk-1" vertex="1">
          <mxGeometry y="126" width="330" height="26" as="geometry" />
        </mxCell>
        <mxCell id="FDom4B-1fI0kme8VLFCk-9" value="+ cancleDelivery(): bool" style="text;strokeColor=none;fillColor=none;align=left;verticalAlign=top;spacingLeft=4;spacingRight=4;overflow=hidden;rotatable=0;points=[[0,0.5],[1,0.5]];portConstraint=eastwest;whiteSpace=wrap;html=1;" parent="FDom4B-1fI0kme8VLFCk-1" vertex="1">
          <mxGeometry y="152" width="330" height="26" as="geometry" />
        </mxCell>
        <mxCell id="FDom4B-1fI0kme8VLFCk-51" value="+ updateDeliveryStatus(): void" style="text;strokeColor=none;fillColor=none;align=left;verticalAlign=top;spacingLeft=4;spacingRight=4;overflow=hidden;rotatable=0;points=[[0,0.5],[1,0.5]];portConstraint=eastwest;whiteSpace=wrap;html=1;" parent="FDom4B-1fI0kme8VLFCk-1" vertex="1">
          <mxGeometry y="178" width="330" height="26" as="geometry" />
        </mxCell>
        <mxCell id="FDom4B-1fI0kme8VLFCk-60" value="+ updateDeliveryDetails(): void" style="text;strokeColor=none;fillColor=none;align=left;verticalAlign=top;spacingLeft=4;spacingRight=4;overflow=hidden;rotatable=0;points=[[0,0.5],[1,0.5]];portConstraint=eastwest;whiteSpace=wrap;html=1;" parent="FDom4B-1fI0kme8VLFCk-1" vertex="1">
          <mxGeometry y="204" width="330" height="26" as="geometry" />
        </mxCell>
        <mxCell id="FDom4B-1fI0kme8VLFCk-13" value="&lt;span style=&quot;font-weight: 400;&quot;&gt;Delivery&lt;/span&gt;&lt;div&gt;&lt;/div&gt;" style="swimlane;fontStyle=1;align=center;verticalAlign=top;childLayout=stackLayout;horizontal=1;startSize=40;horizontalStack=0;resizeParent=1;resizeParentMax=0;resizeLast=0;collapsible=1;marginBottom=0;whiteSpace=wrap;html=1;" parent="1" vertex="1">
          <mxGeometry x="-225" y="868" width="330" height="204" as="geometry" />
        </mxCell>
        <mxCell id="FDom4B-1fI0kme8VLFCk-35" value="-&amp;nbsp; address" style="text;strokeColor=none;fillColor=none;align=left;verticalAlign=top;spacingLeft=4;spacingRight=4;overflow=hidden;rotatable=0;points=[[0,0.5],[1,0.5]];portConstraint=eastwest;whiteSpace=wrap;html=1;" parent="FDom4B-1fI0kme8VLFCk-13" vertex="1">
          <mxGeometry y="40" width="330" height="26" as="geometry" />
        </mxCell>
        <mxCell id="FDom4B-1fI0kme8VLFCk-21" value="- orderId: int" style="text;strokeColor=none;fillColor=none;align=left;verticalAlign=top;spacingLeft=4;spacingRight=4;overflow=hidden;rotatable=0;points=[[0,0.5],[1,0.5]];portConstraint=eastwest;whiteSpace=wrap;html=1;" parent="FDom4B-1fI0kme8VLFCk-13" vertex="1">
          <mxGeometry y="66" width="330" height="26" as="geometry" />
        </mxCell>
        <mxCell id="FDom4B-1fI0kme8VLFCk-24" value="- status: enum" style="text;strokeColor=none;fillColor=none;align=left;verticalAlign=top;spacingLeft=4;spacingRight=4;overflow=hidden;rotatable=0;points=[[0,0.5],[1,0.5]];portConstraint=eastwest;whiteSpace=wrap;html=1;" parent="FDom4B-1fI0kme8VLFCk-13" vertex="1">
          <mxGeometry y="92" width="330" height="26" as="geometry" />
        </mxCell>
        <mxCell id="FDom4B-1fI0kme8VLFCk-61" value="- creationDate: dateTime" style="text;strokeColor=none;fillColor=none;align=left;verticalAlign=top;spacingLeft=4;spacingRight=4;overflow=hidden;rotatable=0;points=[[0,0.5],[1,0.5]];portConstraint=eastwest;whiteSpace=wrap;html=1;" parent="FDom4B-1fI0kme8VLFCk-13" vertex="1">
          <mxGeometry y="118" width="330" height="26" as="geometry" />
        </mxCell>
        <mxCell id="FDom4B-1fI0kme8VLFCk-62" value="- arrivalDate: dateTime" style="text;strokeColor=none;fillColor=none;align=left;verticalAlign=top;spacingLeft=4;spacingRight=4;overflow=hidden;rotatable=0;points=[[0,0.5],[1,0.5]];portConstraint=eastwest;whiteSpace=wrap;html=1;" parent="FDom4B-1fI0kme8VLFCk-13" vertex="1">
          <mxGeometry y="144" width="330" height="26" as="geometry" />
        </mxCell>
        <mxCell id="FDom4B-1fI0kme8VLFCk-15" value="" style="line;strokeWidth=1;fillColor=none;align=left;verticalAlign=middle;spacingTop=-1;spacingLeft=3;spacingRight=3;rotatable=0;labelPosition=right;points=[];portConstraint=eastwest;strokeColor=inherit;" parent="FDom4B-1fI0kme8VLFCk-13" vertex="1">
          <mxGeometry y="170" width="330" height="8" as="geometry" />
        </mxCell>
        <mxCell id="FDom4B-1fI0kme8VLFCk-19" value="+ updateStatus(): bool" style="text;strokeColor=none;fillColor=none;align=left;verticalAlign=top;spacingLeft=4;spacingRight=4;overflow=hidden;rotatable=0;points=[[0,0.5],[1,0.5]];portConstraint=eastwest;whiteSpace=wrap;html=1;" parent="FDom4B-1fI0kme8VLFCk-13" vertex="1">
          <mxGeometry y="178" width="330" height="26" as="geometry" />
        </mxCell>
        <mxCell id="FDom4B-1fI0kme8VLFCk-36" value="&lt;span style=&quot;font-weight: 400;&quot;&gt;Payment&lt;/span&gt;&lt;span style=&quot;font-weight: 400;&quot;&gt;Manager&lt;/span&gt;&lt;div&gt;&lt;/div&gt;" style="swimlane;fontStyle=1;align=center;verticalAlign=top;childLayout=stackLayout;horizontal=1;startSize=40;horizontalStack=0;resizeParent=1;resizeParentMax=0;resizeLast=0;collapsible=1;marginBottom=0;whiteSpace=wrap;html=1;" parent="1" vertex="1">
          <mxGeometry x="196" y="562" width="330" height="204" as="geometry" />
        </mxCell>
        <mxCell id="FDom4B-1fI0kme8VLFCk-37" value="- systemToken" style="text;strokeColor=none;fillColor=none;align=left;verticalAlign=top;spacingLeft=4;spacingRight=4;overflow=hidden;rotatable=0;points=[[0,0.5],[1,0.5]];portConstraint=eastwest;whiteSpace=wrap;html=1;" parent="FDom4B-1fI0kme8VLFCk-36" vertex="1">
          <mxGeometry y="40" width="330" height="26" as="geometry" />
        </mxCell>
        <mxCell id="FDom4B-1fI0kme8VLFCk-38" value="" style="line;strokeWidth=1;fillColor=none;align=left;verticalAlign=middle;spacingTop=-1;spacingLeft=3;spacingRight=3;rotatable=0;labelPosition=right;points=[];portConstraint=eastwest;strokeColor=inherit;" parent="FDom4B-1fI0kme8VLFCk-36" vertex="1">
          <mxGeometry y="66" width="330" height="8" as="geometry" />
        </mxCell>
        <mxCell id="FDom4B-1fI0kme8VLFCk-39" value="+ connect(): bool" style="text;strokeColor=none;fillColor=none;align=left;verticalAlign=top;spacingLeft=4;spacingRight=4;overflow=hidden;rotatable=0;points=[[0,0.5],[1,0.5]];portConstraint=eastwest;whiteSpace=wrap;html=1;" parent="FDom4B-1fI0kme8VLFCk-36" vertex="1">
          <mxGeometry y="74" width="330" height="26" as="geometry" />
        </mxCell>
        <mxCell id="FDom4B-1fI0kme8VLFCk-40" value="+ dissconnect(): bool" style="text;strokeColor=none;fillColor=none;align=left;verticalAlign=top;spacingLeft=4;spacingRight=4;overflow=hidden;rotatable=0;points=[[0,0.5],[1,0.5]];portConstraint=eastwest;whiteSpace=wrap;html=1;" parent="FDom4B-1fI0kme8VLFCk-36" vertex="1">
          <mxGeometry y="100" width="330" height="26" as="geometry" />
        </mxCell>
        <mxCell id="FDom4B-1fI0kme8VLFCk-41" value="+ makePayment(): bool" style="text;strokeColor=none;fillColor=none;align=left;verticalAlign=top;spacingLeft=4;spacingRight=4;overflow=hidden;rotatable=0;points=[[0,0.5],[1,0.5]];portConstraint=eastwest;whiteSpace=wrap;html=1;" parent="FDom4B-1fI0kme8VLFCk-36" vertex="1">
          <mxGeometry y="126" width="330" height="26" as="geometry" />
        </mxCell>
        <mxCell id="FDom4B-1fI0kme8VLFCk-42" value="+ canclePayment(): bool" style="text;strokeColor=none;fillColor=none;align=left;verticalAlign=top;spacingLeft=4;spacingRight=4;overflow=hidden;rotatable=0;points=[[0,0.5],[1,0.5]];portConstraint=eastwest;whiteSpace=wrap;html=1;" parent="FDom4B-1fI0kme8VLFCk-36" vertex="1">
          <mxGeometry y="152" width="330" height="26" as="geometry" />
        </mxCell>
        <mxCell id="FDom4B-1fI0kme8VLFCk-63" value="+ refund(): bool" style="text;strokeColor=none;fillColor=none;align=left;verticalAlign=top;spacingLeft=4;spacingRight=4;overflow=hidden;rotatable=0;points=[[0,0.5],[1,0.5]];portConstraint=eastwest;whiteSpace=wrap;html=1;" parent="FDom4B-1fI0kme8VLFCk-36" vertex="1">
          <mxGeometry y="178" width="330" height="26" as="geometry" />
        </mxCell>
        <mxCell id="FDom4B-1fI0kme8VLFCk-95" style="edgeStyle=orthogonalEdgeStyle;rounded=0;orthogonalLoop=1;jettySize=auto;html=1;exitX=0.476;exitY=0.002;exitDx=0;exitDy=0;endArrow=diamondThin;endFill=1;strokeWidth=1;endSize=11;exitPerimeter=0;entryX=0.44;entryY=0.973;entryDx=0;entryDy=0;entryPerimeter=0;" parent="FDom4B-1fI0kme8VLFCk-36" source="FDom4B-1fI0kme8VLFCk-43" edge="1">
          <mxGeometry relative="1" as="geometry">
            <mxPoint x="157" y="281" as="sourcePoint" />
            <mxPoint x="157" y="204" as="targetPoint" />
          </mxGeometry>
        </mxCell>
        <mxCell id="FDom4B-1fI0kme8VLFCk-43" value="&lt;span style=&quot;font-weight: 400;&quot;&gt;Transaction&lt;/span&gt;&lt;div&gt;&lt;/div&gt;" style="swimlane;fontStyle=1;align=center;verticalAlign=top;childLayout=stackLayout;horizontal=1;startSize=40;horizontalStack=0;resizeParent=1;resizeParentMax=0;resizeLast=0;collapsible=1;marginBottom=0;whiteSpace=wrap;html=1;" parent="1" vertex="1">
          <mxGeometry x="196" y="848" width="330" height="204" as="geometry" />
        </mxCell>
        <mxCell id="FDom4B-1fI0kme8VLFCk-45" value="- billingAddress" style="text;strokeColor=none;fillColor=none;align=left;verticalAlign=top;spacingLeft=4;spacingRight=4;overflow=hidden;rotatable=0;points=[[0,0.5],[1,0.5]];portConstraint=eastwest;whiteSpace=wrap;html=1;" parent="FDom4B-1fI0kme8VLFCk-43" vertex="1">
          <mxGeometry y="40" width="330" height="26" as="geometry" />
        </mxCell>
        <mxCell id="FDom4B-1fI0kme8VLFCk-91" value="- paymentMethod:enum" style="text;strokeColor=none;fillColor=none;align=left;verticalAlign=top;spacingLeft=4;spacingRight=4;overflow=hidden;rotatable=0;points=[[0,0.5],[1,0.5]];portConstraint=eastwest;whiteSpace=wrap;html=1;" parent="FDom4B-1fI0kme8VLFCk-43" vertex="1">
          <mxGeometry y="66" width="330" height="26" as="geometry" />
        </mxCell>
        <mxCell id="FDom4B-1fI0kme8VLFCk-92" value="- numOfPayments: int" style="text;strokeColor=none;fillColor=none;align=left;verticalAlign=top;spacingLeft=4;spacingRight=4;overflow=hidden;rotatable=0;points=[[0,0.5],[1,0.5]];portConstraint=eastwest;whiteSpace=wrap;html=1;" parent="FDom4B-1fI0kme8VLFCk-43" vertex="1">
          <mxGeometry y="92" width="330" height="26" as="geometry" />
        </mxCell>
        <mxCell id="FDom4B-1fI0kme8VLFCk-46" value="- orderId: int" style="text;strokeColor=none;fillColor=none;align=left;verticalAlign=top;spacingLeft=4;spacingRight=4;overflow=hidden;rotatable=0;points=[[0,0.5],[1,0.5]];portConstraint=eastwest;whiteSpace=wrap;html=1;" parent="FDom4B-1fI0kme8VLFCk-43" vertex="1">
          <mxGeometry y="118" width="330" height="26" as="geometry" />
        </mxCell>
        <mxCell id="FDom4B-1fI0kme8VLFCk-48" value="- status: enum" style="text;strokeColor=none;fillColor=none;align=left;verticalAlign=top;spacingLeft=4;spacingRight=4;overflow=hidden;rotatable=0;points=[[0,0.5],[1,0.5]];portConstraint=eastwest;whiteSpace=wrap;html=1;" parent="FDom4B-1fI0kme8VLFCk-43" vertex="1">
          <mxGeometry y="144" width="330" height="26" as="geometry" />
        </mxCell>
        <mxCell id="FDom4B-1fI0kme8VLFCk-49" value="" style="line;strokeWidth=1;fillColor=none;align=left;verticalAlign=middle;spacingTop=-1;spacingLeft=3;spacingRight=3;rotatable=0;labelPosition=right;points=[];portConstraint=eastwest;strokeColor=inherit;" parent="FDom4B-1fI0kme8VLFCk-43" vertex="1">
          <mxGeometry y="170" width="330" height="8" as="geometry" />
        </mxCell>
        <mxCell id="FDom4B-1fI0kme8VLFCk-50" value="+ updateStatus(): bool" style="text;strokeColor=none;fillColor=none;align=left;verticalAlign=top;spacingLeft=4;spacingRight=4;overflow=hidden;rotatable=0;points=[[0,0.5],[1,0.5]];portConstraint=eastwest;whiteSpace=wrap;html=1;" parent="FDom4B-1fI0kme8VLFCk-43" vertex="1">
          <mxGeometry y="178" width="330" height="26" as="geometry" />
        </mxCell>
        <mxCell id="FDom4B-1fI0kme8VLFCk-79" value="&lt;span style=&quot;font-weight: 400;&quot;&gt;Order&lt;/span&gt;&lt;div&gt;&lt;/div&gt;" style="swimlane;fontStyle=1;align=center;verticalAlign=top;childLayout=stackLayout;horizontal=1;startSize=40;horizontalStack=0;resizeParent=1;resizeParentMax=0;resizeLast=0;collapsible=1;marginBottom=0;whiteSpace=wrap;html=1;" parent="1" vertex="1">
          <mxGeometry x="660" y="904" width="330" height="204" as="geometry" />
        </mxCell>
        <mxCell id="FDom4B-1fI0kme8VLFCk-80" value="- userId: int" style="text;strokeColor=none;fillColor=none;align=left;verticalAlign=top;spacingLeft=4;spacingRight=4;overflow=hidden;rotatable=0;points=[[0,0.5],[1,0.5]];portConstraint=eastwest;whiteSpace=wrap;html=1;" parent="FDom4B-1fI0kme8VLFCk-79" vertex="1">
          <mxGeometry y="40" width="330" height="26" as="geometry" />
        </mxCell>
        <mxCell id="FDom4B-1fI0kme8VLFCk-82" value="- orderId: int" style="text;strokeColor=none;fillColor=none;align=left;verticalAlign=top;spacingLeft=4;spacingRight=4;overflow=hidden;rotatable=0;points=[[0,0.5],[1,0.5]];portConstraint=eastwest;whiteSpace=wrap;html=1;" parent="FDom4B-1fI0kme8VLFCk-79" vertex="1">
          <mxGeometry y="66" width="330" height="26" as="geometry" />
        </mxCell>
        <mxCell id="FDom4B-1fI0kme8VLFCk-83" value="- storeId: int" style="text;strokeColor=none;fillColor=none;align=left;verticalAlign=top;spacingLeft=4;spacingRight=4;overflow=hidden;rotatable=0;points=[[0,0.5],[1,0.5]];portConstraint=eastwest;whiteSpace=wrap;html=1;" parent="FDom4B-1fI0kme8VLFCk-79" vertex="1">
          <mxGeometry y="92" width="330" height="26" as="geometry" />
        </mxCell>
        <mxCell id="FDom4B-1fI0kme8VLFCk-84" value="- status: enum" style="text;strokeColor=none;fillColor=none;align=left;verticalAlign=top;spacingLeft=4;spacingRight=4;overflow=hidden;rotatable=0;points=[[0,0.5],[1,0.5]];portConstraint=eastwest;whiteSpace=wrap;html=1;" parent="FDom4B-1fI0kme8VLFCk-79" vertex="1">
          <mxGeometry y="118" width="330" height="26" as="geometry" />
        </mxCell>
        <mxCell id="FDom4B-1fI0kme8VLFCk-93" value="- totalPrice: double" style="text;strokeColor=none;fillColor=none;align=left;verticalAlign=top;spacingLeft=4;spacingRight=4;overflow=hidden;rotatable=0;points=[[0,0.5],[1,0.5]];portConstraint=eastwest;whiteSpace=wrap;html=1;" parent="FDom4B-1fI0kme8VLFCk-79" vertex="1">
          <mxGeometry y="144" width="330" height="26" as="geometry" />
        </mxCell>
        <mxCell id="FDom4B-1fI0kme8VLFCk-86" value="" style="line;strokeWidth=1;fillColor=none;align=left;verticalAlign=middle;spacingTop=-1;spacingLeft=3;spacingRight=3;rotatable=0;labelPosition=right;points=[];portConstraint=eastwest;strokeColor=inherit;" parent="FDom4B-1fI0kme8VLFCk-79" vertex="1">
          <mxGeometry y="170" width="330" height="8" as="geometry" />
        </mxCell>
        <mxCell id="FDom4B-1fI0kme8VLFCk-87" value="+ updateStatus(): bool" style="text;strokeColor=none;fillColor=none;align=left;verticalAlign=top;spacingLeft=4;spacingRight=4;overflow=hidden;rotatable=0;points=[[0,0.5],[1,0.5]];portConstraint=eastwest;whiteSpace=wrap;html=1;" parent="FDom4B-1fI0kme8VLFCk-79" vertex="1">
          <mxGeometry y="178" width="330" height="26" as="geometry" />
        </mxCell>
        <mxCell id="FDom4B-1fI0kme8VLFCk-94" style="edgeStyle=orthogonalEdgeStyle;rounded=0;orthogonalLoop=1;jettySize=auto;html=1;exitX=0.439;exitY=0;exitDx=0;exitDy=0;endArrow=diamondThin;endFill=1;strokeWidth=1;endSize=11;exitPerimeter=0;entryX=0.44;entryY=0.973;entryDx=0;entryDy=0;entryPerimeter=0;" parent="1" source="FDom4B-1fI0kme8VLFCk-13" target="FDom4B-1fI0kme8VLFCk-60" edge="1">
          <mxGeometry relative="1" as="geometry">
            <mxPoint x="-344" y="819" as="sourcePoint" />
            <mxPoint x="-79" y="792" as="targetPoint" />
          </mxGeometry>
        </mxCell>
        <mxCell id="FDom4B-1fI0kme8VLFCk-103" value="&lt;span style=&quot;font-weight: normal;&quot;&gt;&amp;lt;&amp;lt;interface&amp;gt;&amp;gt;&lt;/span&gt;&lt;div&gt;IMarketService&lt;/div&gt;" style="swimlane;fontStyle=1;align=center;verticalAlign=top;childLayout=stackLayout;horizontal=1;startSize=40;horizontalStack=0;resizeParent=1;resizeParentMax=0;resizeLast=0;collapsible=1;marginBottom=0;whiteSpace=wrap;html=1;" parent="1" vertex="1">
          <mxGeometry x="954" y="-476" width="330" height="386" as="geometry" />
        </mxCell>
        <mxCell id="FDom4B-1fI0kme8VLFCk-104" value="" style="line;strokeWidth=1;fillColor=none;align=left;verticalAlign=middle;spacingTop=-1;spacingLeft=3;spacingRight=3;rotatable=0;labelPosition=right;points=[];portConstraint=eastwest;strokeColor=inherit;" parent="FDom4B-1fI0kme8VLFCk-103" vertex="1">
          <mxGeometry y="40" width="330" height="8" as="geometry" />
        </mxCell>
        <mxCell id="FDom4B-1fI0kme8VLFCk-105" value="+ addProduct(): void" style="text;strokeColor=none;fillColor=none;align=left;verticalAlign=top;spacingLeft=4;spacingRight=4;overflow=hidden;rotatable=0;points=[[0,0.5],[1,0.5]];portConstraint=eastwest;whiteSpace=wrap;html=1;" parent="FDom4B-1fI0kme8VLFCk-103" vertex="1">
          <mxGeometry y="48" width="330" height="26" as="geometry" />
        </mxCell>
        <mxCell id="FDom4B-1fI0kme8VLFCk-106" value="+ removeStaffMember(): void" style="text;strokeColor=none;fillColor=none;align=left;verticalAlign=top;spacingLeft=4;spacingRight=4;overflow=hidden;rotatable=0;points=[[0,0.5],[1,0.5]];portConstraint=eastwest;whiteSpace=wrap;html=1;" parent="FDom4B-1fI0kme8VLFCk-103" vertex="1">
          <mxGeometry y="74" width="330" height="26" as="geometry" />
        </mxCell>
        <mxCell id="FDom4B-1fI0kme8VLFCk-107" value="+ addStaffMember(): void" style="text;strokeColor=none;fillColor=none;align=left;verticalAlign=top;spacingLeft=4;spacingRight=4;overflow=hidden;rotatable=0;points=[[0,0.5],[1,0.5]];portConstraint=eastwest;whiteSpace=wrap;html=1;" parent="FDom4B-1fI0kme8VLFCk-103" vertex="1">
          <mxGeometry y="100" width="330" height="26" as="geometry" />
        </mxCell>
        <mxCell id="FDom4B-1fI0kme8VLFCk-108" value="+ checkCart(): bool" style="text;strokeColor=none;fillColor=none;align=left;verticalAlign=top;spacingLeft=4;spacingRight=4;overflow=hidden;rotatable=0;points=[[0,0.5],[1,0.5]];portConstraint=eastwest;whiteSpace=wrap;html=1;" parent="FDom4B-1fI0kme8VLFCk-103" vertex="1">
          <mxGeometry y="126" width="330" height="26" as="geometry" />
        </mxCell>
        <mxCell id="FDom4B-1fI0kme8VLFCk-109" value="+ purchaseCart(): bool" style="text;strokeColor=none;fillColor=none;align=left;verticalAlign=top;spacingLeft=4;spacingRight=4;overflow=hidden;rotatable=0;points=[[0,0.5],[1,0.5]];portConstraint=eastwest;whiteSpace=wrap;html=1;" parent="FDom4B-1fI0kme8VLFCk-103" vertex="1">
          <mxGeometry y="152" width="330" height="26" as="geometry" />
        </mxCell>
        <mxCell id="FDom4B-1fI0kme8VLFCk-110" value="+ updateProductQuantity(): void" style="text;strokeColor=none;fillColor=none;align=left;verticalAlign=top;spacingLeft=4;spacingRight=4;overflow=hidden;rotatable=0;points=[[0,0.5],[1,0.5]];portConstraint=eastwest;whiteSpace=wrap;html=1;" parent="FDom4B-1fI0kme8VLFCk-103" vertex="1">
          <mxGeometry y="178" width="330" height="26" as="geometry" />
        </mxCell>
        <mxCell id="FDom4B-1fI0kme8VLFCk-111" value="+ updateProductPrice(): void" style="text;strokeColor=none;fillColor=none;align=left;verticalAlign=top;spacingLeft=4;spacingRight=4;overflow=hidden;rotatable=0;points=[[0,0.5],[1,0.5]];portConstraint=eastwest;whiteSpace=wrap;html=1;" parent="FDom4B-1fI0kme8VLFCk-103" vertex="1">
          <mxGeometry y="204" width="330" height="26" as="geometry" />
        </mxCell>
        <mxCell id="FDom4B-1fI0kme8VLFCk-112" value="+ closeStrore(): void" style="text;strokeColor=none;fillColor=none;align=left;verticalAlign=top;spacingLeft=4;spacingRight=4;overflow=hidden;rotatable=0;points=[[0,0.5],[1,0.5]];portConstraint=eastwest;whiteSpace=wrap;html=1;" parent="FDom4B-1fI0kme8VLFCk-103" vertex="1">
          <mxGeometry y="230" width="330" height="26" as="geometry" />
        </mxCell>
        <mxCell id="FDom4B-1fI0kme8VLFCk-113" value="+ openStore(): void" style="text;strokeColor=none;fillColor=none;align=left;verticalAlign=top;spacingLeft=4;spacingRight=4;overflow=hidden;rotatable=0;points=[[0,0.5],[1,0.5]];portConstraint=eastwest;whiteSpace=wrap;html=1;" parent="FDom4B-1fI0kme8VLFCk-103" vertex="1">
          <mxGeometry y="256" width="330" height="26" as="geometry" />
        </mxCell>
        <mxCell id="FDom4B-1fI0kme8VLFCk-114" value="+ isAvailable(): bool" style="text;strokeColor=none;fillColor=none;align=left;verticalAlign=top;spacingLeft=4;spacingRight=4;overflow=hidden;rotatable=0;points=[[0,0.5],[1,0.5]];portConstraint=eastwest;whiteSpace=wrap;html=1;" parent="FDom4B-1fI0kme8VLFCk-103" vertex="1">
          <mxGeometry y="282" width="330" height="26" as="geometry" />
        </mxCell>
        <mxCell id="FDom4B-1fI0kme8VLFCk-115" value="+ updateQuantity(): void" style="text;strokeColor=none;fillColor=none;align=left;verticalAlign=top;spacingLeft=4;spacingRight=4;overflow=hidden;rotatable=0;points=[[0,0.5],[1,0.5]];portConstraint=eastwest;whiteSpace=wrap;html=1;" parent="FDom4B-1fI0kme8VLFCk-103" vertex="1">
          <mxGeometry y="308" width="330" height="26" as="geometry" />
        </mxCell>
        <mxCell id="FDom4B-1fI0kme8VLFCk-116" value="+ calculateTotalPrice(): double" style="text;strokeColor=none;fillColor=none;align=left;verticalAlign=top;spacingLeft=4;spacingRight=4;overflow=hidden;rotatable=0;points=[[0,0.5],[1,0.5]];portConstraint=eastwest;whiteSpace=wrap;html=1;" parent="FDom4B-1fI0kme8VLFCk-103" vertex="1">
          <mxGeometry y="334" width="330" height="26" as="geometry" />
        </mxCell>
        <mxCell id="FDom4B-1fI0kme8VLFCk-117" value="+ removeProduct(): void" style="text;strokeColor=none;fillColor=none;align=left;verticalAlign=top;spacingLeft=4;spacingRight=4;overflow=hidden;rotatable=0;points=[[0,0.5],[1,0.5]];portConstraint=eastwest;whiteSpace=wrap;html=1;" parent="FDom4B-1fI0kme8VLFCk-103" vertex="1">
          <mxGeometry y="360" width="330" height="26" as="geometry" />
        </mxCell>
        <mxCell id="FDom4B-1fI0kme8VLFCk-118" value="&lt;span style=&quot;font-weight: normal;&quot;&gt;&amp;lt;&amp;lt;interface&amp;gt;&amp;gt;&lt;/span&gt;&lt;div&gt;IAlertService&lt;/div&gt;" style="swimlane;fontStyle=1;align=center;verticalAlign=top;childLayout=stackLayout;horizontal=1;startSize=40;horizontalStack=0;resizeParent=1;resizeParentMax=0;resizeLast=0;collapsible=1;marginBottom=0;whiteSpace=wrap;html=1;" parent="1" vertex="1">
          <mxGeometry x="1350" y="-476" width="330" height="152" as="geometry" />
        </mxCell>
        <mxCell id="FDom4B-1fI0kme8VLFCk-119" value="" style="line;strokeWidth=1;fillColor=none;align=left;verticalAlign=middle;spacingTop=-1;spacingLeft=3;spacingRight=3;rotatable=0;labelPosition=right;points=[];portConstraint=eastwest;strokeColor=inherit;" parent="FDom4B-1fI0kme8VLFCk-118" vertex="1">
          <mxGeometry y="40" width="330" height="8" as="geometry" />
        </mxCell>
        <mxCell id="FDom4B-1fI0kme8VLFCk-120" value="+ sendMessageOnLine(): void" style="text;strokeColor=none;fillColor=none;align=left;verticalAlign=top;spacingLeft=4;spacingRight=4;overflow=hidden;rotatable=0;points=[[0,0.5],[1,0.5]];portConstraint=eastwest;whiteSpace=wrap;html=1;" parent="FDom4B-1fI0kme8VLFCk-118" vertex="1">
          <mxGeometry y="48" width="330" height="26" as="geometry" />
        </mxCell>
        <mxCell id="FDom4B-1fI0kme8VLFCk-121" value="+ sendMessageOffLine(): void" style="text;strokeColor=none;fillColor=none;align=left;verticalAlign=top;spacingLeft=4;spacingRight=4;overflow=hidden;rotatable=0;points=[[0,0.5],[1,0.5]];portConstraint=eastwest;whiteSpace=wrap;html=1;" parent="FDom4B-1fI0kme8VLFCk-118" vertex="1">
          <mxGeometry y="74" width="330" height="26" as="geometry" />
        </mxCell>
        <mxCell id="FDom4B-1fI0kme8VLFCk-122" value="+ sendMessageTrigger(): void" style="text;strokeColor=none;fillColor=none;align=left;verticalAlign=top;spacingLeft=4;spacingRight=4;overflow=hidden;rotatable=0;points=[[0,0.5],[1,0.5]];portConstraint=eastwest;whiteSpace=wrap;html=1;" parent="FDom4B-1fI0kme8VLFCk-118" vertex="1">
          <mxGeometry y="100" width="330" height="26" as="geometry" />
        </mxCell>
        <mxCell id="FDom4B-1fI0kme8VLFCk-125" value="+ makeMessage(): void" style="text;strokeColor=none;fillColor=none;align=left;verticalAlign=top;spacingLeft=4;spacingRight=4;overflow=hidden;rotatable=0;points=[[0,0.5],[1,0.5]];portConstraint=eastwest;whiteSpace=wrap;html=1;" parent="FDom4B-1fI0kme8VLFCk-118" vertex="1">
          <mxGeometry y="126" width="330" height="26" as="geometry" />
        </mxCell>
        <mxCell id="FDom4B-1fI0kme8VLFCk-137" value="&lt;span style=&quot;font-weight: normal;&quot;&gt;&amp;lt;&amp;lt;interface&amp;gt;&amp;gt;&lt;/span&gt;&lt;div&gt;ISupplayService&lt;/div&gt;&lt;div&gt;&lt;/div&gt;" style="swimlane;fontStyle=1;align=center;verticalAlign=top;childLayout=stackLayout;horizontal=1;startSize=40;horizontalStack=0;resizeParent=1;resizeParentMax=0;resizeLast=0;collapsible=1;marginBottom=0;whiteSpace=wrap;html=1;" parent="1" vertex="1">
          <mxGeometry x="150" y="-476" width="330" height="204" as="geometry" />
        </mxCell>
        <mxCell id="FDom4B-1fI0kme8VLFCk-139" value="" style="line;strokeWidth=1;fillColor=none;align=left;verticalAlign=middle;spacingTop=-1;spacingLeft=3;spacingRight=3;rotatable=0;labelPosition=right;points=[];portConstraint=eastwest;strokeColor=inherit;" parent="FDom4B-1fI0kme8VLFCk-137" vertex="1">
          <mxGeometry y="40" width="330" height="8" as="geometry" />
        </mxCell>
        <mxCell id="FDom4B-1fI0kme8VLFCk-140" value="+ connect(): bool" style="text;strokeColor=none;fillColor=none;align=left;verticalAlign=top;spacingLeft=4;spacingRight=4;overflow=hidden;rotatable=0;points=[[0,0.5],[1,0.5]];portConstraint=eastwest;whiteSpace=wrap;html=1;" parent="FDom4B-1fI0kme8VLFCk-137" vertex="1">
          <mxGeometry y="48" width="330" height="26" as="geometry" />
        </mxCell>
        <mxCell id="FDom4B-1fI0kme8VLFCk-141" value="+ dissconnect(): bool" style="text;strokeColor=none;fillColor=none;align=left;verticalAlign=top;spacingLeft=4;spacingRight=4;overflow=hidden;rotatable=0;points=[[0,0.5],[1,0.5]];portConstraint=eastwest;whiteSpace=wrap;html=1;" parent="FDom4B-1fI0kme8VLFCk-137" vertex="1">
          <mxGeometry y="74" width="330" height="26" as="geometry" />
        </mxCell>
        <mxCell id="FDom4B-1fI0kme8VLFCk-142" value="+ createDelivery(): bool" style="text;strokeColor=none;fillColor=none;align=left;verticalAlign=top;spacingLeft=4;spacingRight=4;overflow=hidden;rotatable=0;points=[[0,0.5],[1,0.5]];portConstraint=eastwest;whiteSpace=wrap;html=1;" parent="FDom4B-1fI0kme8VLFCk-137" vertex="1">
          <mxGeometry y="100" width="330" height="26" as="geometry" />
        </mxCell>
        <mxCell id="FDom4B-1fI0kme8VLFCk-143" value="+ cancleDelivery(): bool" style="text;strokeColor=none;fillColor=none;align=left;verticalAlign=top;spacingLeft=4;spacingRight=4;overflow=hidden;rotatable=0;points=[[0,0.5],[1,0.5]];portConstraint=eastwest;whiteSpace=wrap;html=1;" parent="FDom4B-1fI0kme8VLFCk-137" vertex="1">
          <mxGeometry y="126" width="330" height="26" as="geometry" />
        </mxCell>
        <mxCell id="FDom4B-1fI0kme8VLFCk-144" value="+ updateDeliveryStatus(): void" style="text;strokeColor=none;fillColor=none;align=left;verticalAlign=top;spacingLeft=4;spacingRight=4;overflow=hidden;rotatable=0;points=[[0,0.5],[1,0.5]];portConstraint=eastwest;whiteSpace=wrap;html=1;" parent="FDom4B-1fI0kme8VLFCk-137" vertex="1">
          <mxGeometry y="152" width="330" height="26" as="geometry" />
        </mxCell>
        <mxCell id="FDom4B-1fI0kme8VLFCk-145" value="+ updateDeliveryDetails(): void" style="text;strokeColor=none;fillColor=none;align=left;verticalAlign=top;spacingLeft=4;spacingRight=4;overflow=hidden;rotatable=0;points=[[0,0.5],[1,0.5]];portConstraint=eastwest;whiteSpace=wrap;html=1;" parent="FDom4B-1fI0kme8VLFCk-137" vertex="1">
          <mxGeometry y="178" width="330" height="26" as="geometry" />
        </mxCell>
        <mxCell id="FDom4B-1fI0kme8VLFCk-146" value="&lt;span style=&quot;font-weight: normal;&quot;&gt;&amp;lt;&amp;lt;interface&amp;gt;&amp;gt;&lt;/span&gt;&lt;div&gt;IPaymentService&lt;/div&gt;&lt;div&gt;&lt;/div&gt;" style="swimlane;fontStyle=1;align=center;verticalAlign=top;childLayout=stackLayout;horizontal=1;startSize=40;horizontalStack=0;resizeParent=1;resizeParentMax=0;resizeLast=0;collapsible=1;marginBottom=0;whiteSpace=wrap;html=1;" parent="1" vertex="1">
          <mxGeometry x="571" y="-476" width="330" height="178" as="geometry" />
        </mxCell>
        <mxCell id="FDom4B-1fI0kme8VLFCk-148" value="" style="line;strokeWidth=1;fillColor=none;align=left;verticalAlign=middle;spacingTop=-1;spacingLeft=3;spacingRight=3;rotatable=0;labelPosition=right;points=[];portConstraint=eastwest;strokeColor=inherit;" parent="FDom4B-1fI0kme8VLFCk-146" vertex="1">
          <mxGeometry y="40" width="330" height="8" as="geometry" />
        </mxCell>
        <mxCell id="FDom4B-1fI0kme8VLFCk-149" value="+ connect(): bool" style="text;strokeColor=none;fillColor=none;align=left;verticalAlign=top;spacingLeft=4;spacingRight=4;overflow=hidden;rotatable=0;points=[[0,0.5],[1,0.5]];portConstraint=eastwest;whiteSpace=wrap;html=1;" parent="FDom4B-1fI0kme8VLFCk-146" vertex="1">
          <mxGeometry y="48" width="330" height="26" as="geometry" />
        </mxCell>
        <mxCell id="FDom4B-1fI0kme8VLFCk-150" value="+ dissconnect(): bool" style="text;strokeColor=none;fillColor=none;align=left;verticalAlign=top;spacingLeft=4;spacingRight=4;overflow=hidden;rotatable=0;points=[[0,0.5],[1,0.5]];portConstraint=eastwest;whiteSpace=wrap;html=1;" parent="FDom4B-1fI0kme8VLFCk-146" vertex="1">
          <mxGeometry y="74" width="330" height="26" as="geometry" />
        </mxCell>
        <mxCell id="FDom4B-1fI0kme8VLFCk-151" value="+ makePayment(): bool" style="text;strokeColor=none;fillColor=none;align=left;verticalAlign=top;spacingLeft=4;spacingRight=4;overflow=hidden;rotatable=0;points=[[0,0.5],[1,0.5]];portConstraint=eastwest;whiteSpace=wrap;html=1;" parent="FDom4B-1fI0kme8VLFCk-146" vertex="1">
          <mxGeometry y="100" width="330" height="26" as="geometry" />
        </mxCell>
        <mxCell id="FDom4B-1fI0kme8VLFCk-152" value="+ canclePayment(): bool" style="text;strokeColor=none;fillColor=none;align=left;verticalAlign=top;spacingLeft=4;spacingRight=4;overflow=hidden;rotatable=0;points=[[0,0.5],[1,0.5]];portConstraint=eastwest;whiteSpace=wrap;html=1;" parent="FDom4B-1fI0kme8VLFCk-146" vertex="1">
          <mxGeometry y="126" width="330" height="26" as="geometry" />
        </mxCell>
        <mxCell id="FDom4B-1fI0kme8VLFCk-153" value="+ refund(): bool" style="text;strokeColor=none;fillColor=none;align=left;verticalAlign=top;spacingLeft=4;spacingRight=4;overflow=hidden;rotatable=0;points=[[0,0.5],[1,0.5]];portConstraint=eastwest;whiteSpace=wrap;html=1;" parent="FDom4B-1fI0kme8VLFCk-146" vertex="1">
          <mxGeometry y="152" width="330" height="26" as="geometry" />
        </mxCell>
        <mxCell id="FDom4B-1fI0kme8VLFCk-156" value="&lt;p style=&quot;margin:0px;margin-top:4px;text-align:center;&quot;&gt;&lt;b&gt;AlertManager&lt;/b&gt;&lt;/p&gt;&lt;hr size=&quot;1&quot; style=&quot;border-style:solid;&quot;&gt;&lt;div style=&quot;height:2px;&quot;&gt;&lt;/div&gt;" style="verticalAlign=top;align=left;overflow=fill;html=1;whiteSpace=wrap;" parent="1" vertex="1">
          <mxGeometry x="1350" y="-296" width="330" height="60" as="geometry" />
        </mxCell>
        <mxCell id="FDom4B-1fI0kme8VLFCk-168" style="edgeStyle=orthogonalEdgeStyle;rounded=0;orthogonalLoop=1;jettySize=auto;html=1;exitX=0.5;exitY=1;exitDx=0;exitDy=0;entryX=0;entryY=0.5;entryDx=0;entryDy=0;dashed=1;endArrow=open;endFill=0;" parent="1" source="FDom4B-1fI0kme8VLFCk-157" target="pJkwpibmYWs6iMc-g0Pl-82" edge="1">
          <mxGeometry relative="1" as="geometry">
            <Array as="points">
              <mxPoint x="1072" y="-9" />
              <mxPoint x="1072" y="814" />
            </Array>
          </mxGeometry>
        </mxCell>
        <mxCell id="FDom4B-1fI0kme8VLFCk-169" value="&amp;lt;&amp;lt;use&amp;gt;&amp;gt;" style="edgeLabel;html=1;align=center;verticalAlign=middle;resizable=0;points=[];" parent="FDom4B-1fI0kme8VLFCk-168" vertex="1" connectable="0">
          <mxGeometry x="-0.9391" y="3" relative="1" as="geometry">
            <mxPoint y="75" as="offset" />
          </mxGeometry>
        </mxCell>
        <mxCell id="FDom4B-1fI0kme8VLFCk-157" value="&lt;p style=&quot;margin:0px;margin-top:4px;text-align:center;&quot;&gt;&lt;b&gt;MarketManager&lt;/b&gt;&lt;/p&gt;&lt;hr size=&quot;1&quot; style=&quot;border-style:solid;&quot;&gt;&lt;div style=&quot;height:2px;&quot;&gt;&lt;/div&gt;" style="verticalAlign=top;align=left;overflow=fill;html=1;whiteSpace=wrap;" parent="1" vertex="1">
          <mxGeometry x="954" y="-69" width="330" height="60" as="geometry" />
        </mxCell>
        <mxCell id="FDom4B-1fI0kme8VLFCk-158" value="&lt;p style=&quot;margin:0px;margin-top:4px;text-align:center;&quot;&gt;&lt;b&gt;SupplyManager&lt;/b&gt;&lt;/p&gt;&lt;hr size=&quot;1&quot; style=&quot;border-style:solid;&quot;&gt;&lt;div style=&quot;height:2px;&quot;&gt;&lt;/div&gt;" style="verticalAlign=top;align=left;overflow=fill;html=1;whiteSpace=wrap;" parent="1" vertex="1">
          <mxGeometry x="150" y="-246" width="330" height="60" as="geometry" />
        </mxCell>
        <mxCell id="FDom4B-1fI0kme8VLFCk-185" style="edgeStyle=orthogonalEdgeStyle;rounded=0;orthogonalLoop=1;jettySize=auto;html=1;exitX=0.5;exitY=1;exitDx=0;exitDy=0;dashed=1;endArrow=open;endFill=0;" parent="1" source="FDom4B-1fI0kme8VLFCk-159" target="FDom4B-1fI0kme8VLFCk-166" edge="1">
          <mxGeometry relative="1" as="geometry" />
        </mxCell>
        <mxCell id="FDom4B-1fI0kme8VLFCk-187" value="&amp;lt;&amp;lt;use&amp;gt;&amp;gt;" style="edgeLabel;html=1;align=center;verticalAlign=middle;resizable=0;points=[];" parent="FDom4B-1fI0kme8VLFCk-185" vertex="1" connectable="0">
          <mxGeometry x="-0.9148" y="2" relative="1" as="geometry">
            <mxPoint as="offset" />
          </mxGeometry>
        </mxCell>
        <mxCell id="FDom4B-1fI0kme8VLFCk-159" value="&lt;p style=&quot;margin:0px;margin-top:4px;text-align:center;&quot;&gt;&lt;b&gt;PaymentManager&lt;/b&gt;&lt;/p&gt;&lt;hr size=&quot;1&quot; style=&quot;border-style:solid;&quot;&gt;&lt;div style=&quot;height:2px;&quot;&gt;&lt;/div&gt;" style="verticalAlign=top;align=left;overflow=fill;html=1;whiteSpace=wrap;" parent="1" vertex="1">
          <mxGeometry x="571" y="-256" width="330" height="60" as="geometry" />
        </mxCell>
        <mxCell id="FDom4B-1fI0kme8VLFCk-160" value="&lt;font style=&quot;font-size: 20px;&quot;&gt;service&lt;/font&gt;" style="shape=umlFrame;whiteSpace=wrap;html=1;pointerEvents=0;width=110;height=54;" parent="1" vertex="1">
          <mxGeometry x="-740" y="-550" width="3660" height="694" as="geometry" />
        </mxCell>
        <mxCell id="FDom4B-1fI0kme8VLFCk-161" value="&lt;font style=&quot;font-size: 30px;&quot;&gt;domain&lt;/font&gt;" style="shape=umlFrame;whiteSpace=wrap;html=1;pointerEvents=0;width=240;height=90;" parent="1" vertex="1">
          <mxGeometry x="-750" y="160" width="4310" height="1840" as="geometry" />
        </mxCell>
        <mxCell id="FDom4B-1fI0kme8VLFCk-162" value="&lt;font style=&quot;font-size: 30px;&quot;&gt;market&lt;/font&gt;" style="shape=umlFrame;whiteSpace=wrap;html=1;pointerEvents=0;width=240;height=90;" parent="1" vertex="1">
          <mxGeometry x="600" y="250" width="960" height="1680" as="geometry" />
        </mxCell>
        <mxCell id="FDom4B-1fI0kme8VLFCk-163" value="&lt;font style=&quot;font-size: 30px;&quot;&gt;alert&lt;/font&gt;" style="shape=umlFrame;whiteSpace=wrap;html=1;pointerEvents=0;width=240;height=90;" parent="1" vertex="1">
          <mxGeometry x="1650" y="250" width="860" height="850" as="geometry" />
        </mxCell>
        <mxCell id="FDom4B-1fI0kme8VLFCk-165" value="&lt;font style=&quot;font-size: 30px;&quot;&gt;supply&lt;/font&gt;" style="shape=umlFrame;whiteSpace=wrap;html=1;pointerEvents=0;width=240;height=90;" parent="1" vertex="1">
          <mxGeometry x="-290" y="454" width="440" height="686" as="geometry" />
        </mxCell>
        <mxCell id="FDom4B-1fI0kme8VLFCk-166" value="&lt;font style=&quot;font-size: 30px;&quot;&gt;payment&lt;/font&gt;" style="shape=umlFrame;whiteSpace=wrap;html=1;pointerEvents=0;width=240;height=90;" parent="1" vertex="1">
          <mxGeometry x="166" y="454" width="390" height="686" as="geometry" />
        </mxCell>
        <mxCell id="FDom4B-1fI0kme8VLFCk-170" style="edgeStyle=orthogonalEdgeStyle;rounded=0;orthogonalLoop=1;jettySize=auto;html=1;exitX=0.5;exitY=1;exitDx=0;exitDy=0;entryX=0.5;entryY=0;entryDx=0;entryDy=0;dashed=1;endArrow=open;endFill=0;" parent="1" source="FDom4B-1fI0kme8VLFCk-156" target="FDom4B-1fI0kme8VLFCk-171" edge="1">
          <mxGeometry relative="1" as="geometry" />
        </mxCell>
        <mxCell id="FDom4B-1fI0kme8VLFCk-172" value="&amp;lt;&amp;lt;use&amp;gt;&amp;gt;" style="edgeLabel;html=1;align=center;verticalAlign=middle;resizable=0;points=[];" parent="FDom4B-1fI0kme8VLFCk-170" vertex="1" connectable="0">
          <mxGeometry x="-0.9501" y="-1" relative="1" as="geometry">
            <mxPoint as="offset" />
          </mxGeometry>
        </mxCell>
        <mxCell id="FDom4B-1fI0kme8VLFCk-171" value="&lt;p style=&quot;margin:0px;margin-top:4px;text-align:center;&quot;&gt;&lt;b&gt;AlertFacade&lt;/b&gt;&lt;/p&gt;&lt;hr size=&quot;1&quot; style=&quot;border-style:solid;&quot;&gt;&lt;div style=&quot;height:2px;&quot;&gt;&lt;/div&gt;" style="verticalAlign=top;align=left;overflow=fill;html=1;whiteSpace=wrap;" parent="1" vertex="1">
          <mxGeometry x="1970" y="390" width="330" height="60" as="geometry" />
        </mxCell>
        <mxCell id="FDom4B-1fI0kme8VLFCk-173" style="edgeStyle=orthogonalEdgeStyle;rounded=0;orthogonalLoop=1;jettySize=auto;html=1;exitX=0;exitY=0.5;exitDx=0;exitDy=0;entryX=0.476;entryY=1.218;entryDx=0;entryDy=0;entryPerimeter=0;" parent="1" source="FDom4B-1fI0kme8VLFCk-83" target="FDom4B-1fI0kme8VLFCk-50" edge="1">
          <mxGeometry relative="1" as="geometry">
            <Array as="points">
              <mxPoint x="630" y="953" />
              <mxPoint x="630" y="1110" />
              <mxPoint x="353" y="1110" />
            </Array>
          </mxGeometry>
        </mxCell>
        <mxCell id="FDom4B-1fI0kme8VLFCk-174" style="edgeStyle=orthogonalEdgeStyle;rounded=0;orthogonalLoop=1;jettySize=auto;html=1;exitX=0;exitY=0.5;exitDx=0;exitDy=0;entryX=0.418;entryY=1.218;entryDx=0;entryDy=0;entryPerimeter=0;" parent="1" source="FDom4B-1fI0kme8VLFCk-93" target="FDom4B-1fI0kme8VLFCk-19" edge="1">
          <mxGeometry relative="1" as="geometry">
            <Array as="points">
              <mxPoint x="650" y="1005" />
              <mxPoint x="650" y="1160" />
              <mxPoint x="-87" y="1160" />
            </Array>
          </mxGeometry>
        </mxCell>
        <mxCell id="FDom4B-1fI0kme8VLFCk-183" style="edgeStyle=orthogonalEdgeStyle;rounded=0;orthogonalLoop=1;jettySize=auto;html=1;entryX=0.25;entryY=0;entryDx=0;entryDy=0;" parent="1" source="FDom4B-1fI0kme8VLFCk-87" target="pJkwpibmYWs6iMc-g0Pl-5" edge="1">
          <mxGeometry relative="1" as="geometry">
            <Array as="points">
              <mxPoint x="788" y="1160" />
              <mxPoint x="788" y="1160" />
            </Array>
          </mxGeometry>
        </mxCell>
        <mxCell id="FDom4B-1fI0kme8VLFCk-184" style="edgeStyle=orthogonalEdgeStyle;rounded=0;orthogonalLoop=1;jettySize=auto;html=1;exitX=0.5;exitY=1;exitDx=0;exitDy=0;entryX=0.6;entryY=0.01;entryDx=0;entryDy=0;entryPerimeter=0;dashed=1;endArrow=open;endFill=0;" parent="1" source="FDom4B-1fI0kme8VLFCk-158" target="FDom4B-1fI0kme8VLFCk-1" edge="1">
          <mxGeometry relative="1" as="geometry" />
        </mxCell>
        <mxCell id="FDom4B-1fI0kme8VLFCk-186" value="&amp;lt;&amp;lt;use&amp;gt;&amp;gt;" style="edgeLabel;html=1;align=center;verticalAlign=middle;resizable=0;points=[];" parent="FDom4B-1fI0kme8VLFCk-184" vertex="1" connectable="0">
          <mxGeometry x="-0.8987" y="1" relative="1" as="geometry">
            <mxPoint as="offset" />
          </mxGeometry>
        </mxCell>
        <mxCell id="FDom4B-1fI0kme8VLFCk-188" value="&lt;span style=&quot;font-weight: 400;&quot;&gt;Purchase- strategy&lt;/span&gt;&lt;div&gt;&lt;/div&gt;" style="swimlane;fontStyle=1;align=center;verticalAlign=top;childLayout=stackLayout;horizontal=1;startSize=40;horizontalStack=0;resizeParent=1;resizeParentMax=0;resizeLast=0;collapsible=1;marginBottom=0;whiteSpace=wrap;html=1;" parent="1" vertex="1">
          <mxGeometry x="690" y="420" width="330" height="152" as="geometry" />
        </mxCell>
        <mxCell id="FDom4B-1fI0kme8VLFCk-189" value="- userId: int" style="text;strokeColor=none;fillColor=none;align=left;verticalAlign=top;spacingLeft=4;spacingRight=4;overflow=hidden;rotatable=0;points=[[0,0.5],[1,0.5]];portConstraint=eastwest;whiteSpace=wrap;html=1;" parent="FDom4B-1fI0kme8VLFCk-188" vertex="1">
          <mxGeometry y="40" width="330" height="26" as="geometry" />
        </mxCell>
        <mxCell id="FDom4B-1fI0kme8VLFCk-191" value="- storeId: int" style="text;strokeColor=none;fillColor=none;align=left;verticalAlign=top;spacingLeft=4;spacingRight=4;overflow=hidden;rotatable=0;points=[[0,0.5],[1,0.5]];portConstraint=eastwest;whiteSpace=wrap;html=1;" parent="FDom4B-1fI0kme8VLFCk-188" vertex="1">
          <mxGeometry y="66" width="330" height="26" as="geometry" />
        </mxCell>
        <mxCell id="FDom4B-1fI0kme8VLFCk-193" value="- totalPrice: double" style="text;strokeColor=none;fillColor=none;align=left;verticalAlign=top;spacingLeft=4;spacingRight=4;overflow=hidden;rotatable=0;points=[[0,0.5],[1,0.5]];portConstraint=eastwest;whiteSpace=wrap;html=1;" parent="FDom4B-1fI0kme8VLFCk-188" vertex="1">
          <mxGeometry y="92" width="330" height="26" as="geometry" />
        </mxCell>
        <mxCell id="FDom4B-1fI0kme8VLFCk-194" value="" style="line;strokeWidth=1;fillColor=none;align=left;verticalAlign=middle;spacingTop=-1;spacingLeft=3;spacingRight=3;rotatable=0;labelPosition=right;points=[];portConstraint=eastwest;strokeColor=inherit;" parent="FDom4B-1fI0kme8VLFCk-188" vertex="1">
          <mxGeometry y="118" width="330" height="8" as="geometry" />
        </mxCell>
        <mxCell id="FDom4B-1fI0kme8VLFCk-195" value="+ purchase(): bool" style="text;strokeColor=none;fillColor=none;align=left;verticalAlign=top;spacingLeft=4;spacingRight=4;overflow=hidden;rotatable=0;points=[[0,0.5],[1,0.5]];portConstraint=eastwest;whiteSpace=wrap;html=1;" parent="FDom4B-1fI0kme8VLFCk-188" vertex="1">
          <mxGeometry y="126" width="330" height="26" as="geometry" />
        </mxCell>
        <mxCell id="FDom4B-1fI0kme8VLFCk-196" value="&lt;span style=&quot;font-weight: 400;&quot;&gt;Normal&lt;/span&gt;&lt;div&gt;&lt;/div&gt;" style="swimlane;fontStyle=1;align=center;verticalAlign=top;childLayout=stackLayout;horizontal=1;startSize=40;horizontalStack=0;resizeParent=1;resizeParentMax=0;resizeLast=0;collapsible=1;marginBottom=0;whiteSpace=wrap;html=1;" parent="1" vertex="1">
          <mxGeometry x="617" y="626" width="210" height="74" as="geometry" />
        </mxCell>
        <mxCell id="FDom4B-1fI0kme8VLFCk-202" value="" style="line;strokeWidth=1;fillColor=none;align=left;verticalAlign=middle;spacingTop=-1;spacingLeft=3;spacingRight=3;rotatable=0;labelPosition=right;points=[];portConstraint=eastwest;strokeColor=inherit;" parent="FDom4B-1fI0kme8VLFCk-196" vertex="1">
          <mxGeometry y="40" width="210" height="8" as="geometry" />
        </mxCell>
        <mxCell id="FDom4B-1fI0kme8VLFCk-203" value="+ purchase(): bool" style="text;strokeColor=none;fillColor=none;align=left;verticalAlign=top;spacingLeft=4;spacingRight=4;overflow=hidden;rotatable=0;points=[[0,0.5],[1,0.5]];portConstraint=eastwest;whiteSpace=wrap;html=1;" parent="FDom4B-1fI0kme8VLFCk-196" vertex="1">
          <mxGeometry y="48" width="210" height="26" as="geometry" />
        </mxCell>
        <mxCell id="FDom4B-1fI0kme8VLFCk-204" value="&lt;span style=&quot;font-weight: 400;&quot;&gt;Bid&lt;/span&gt;&lt;div&gt;&lt;/div&gt;" style="swimlane;fontStyle=1;align=center;verticalAlign=top;childLayout=stackLayout;horizontal=1;startSize=40;horizontalStack=0;resizeParent=1;resizeParentMax=0;resizeLast=0;collapsible=1;marginBottom=0;whiteSpace=wrap;html=1;" parent="1" vertex="1">
          <mxGeometry x="740" y="730" width="210" height="74" as="geometry" />
        </mxCell>
        <mxCell id="FDom4B-1fI0kme8VLFCk-205" value="" style="line;strokeWidth=1;fillColor=none;align=left;verticalAlign=middle;spacingTop=-1;spacingLeft=3;spacingRight=3;rotatable=0;labelPosition=right;points=[];portConstraint=eastwest;strokeColor=inherit;" parent="FDom4B-1fI0kme8VLFCk-204" vertex="1">
          <mxGeometry y="40" width="210" height="8" as="geometry" />
        </mxCell>
        <mxCell id="FDom4B-1fI0kme8VLFCk-206" value="+ purchase(): bool" style="text;strokeColor=none;fillColor=none;align=left;verticalAlign=top;spacingLeft=4;spacingRight=4;overflow=hidden;rotatable=0;points=[[0,0.5],[1,0.5]];portConstraint=eastwest;whiteSpace=wrap;html=1;" parent="FDom4B-1fI0kme8VLFCk-204" vertex="1">
          <mxGeometry y="48" width="210" height="26" as="geometry" />
        </mxCell>
        <mxCell id="FDom4B-1fI0kme8VLFCk-207" value="&lt;span style=&quot;font-weight: 400;&quot;&gt;PublicSale&lt;/span&gt;&lt;div&gt;&lt;/div&gt;" style="swimlane;fontStyle=1;align=center;verticalAlign=top;childLayout=stackLayout;horizontal=1;startSize=40;horizontalStack=0;resizeParent=1;resizeParentMax=0;resizeLast=0;collapsible=1;marginBottom=0;whiteSpace=wrap;html=1;" parent="1" vertex="1">
          <mxGeometry x="840" y="628" width="210" height="74" as="geometry" />
        </mxCell>
        <mxCell id="FDom4B-1fI0kme8VLFCk-208" value="" style="line;strokeWidth=1;fillColor=none;align=left;verticalAlign=middle;spacingTop=-1;spacingLeft=3;spacingRight=3;rotatable=0;labelPosition=right;points=[];portConstraint=eastwest;strokeColor=inherit;" parent="FDom4B-1fI0kme8VLFCk-207" vertex="1">
          <mxGeometry y="40" width="210" height="8" as="geometry" />
        </mxCell>
        <mxCell id="FDom4B-1fI0kme8VLFCk-209" value="+ purchase(): bool" style="text;strokeColor=none;fillColor=none;align=left;verticalAlign=top;spacingLeft=4;spacingRight=4;overflow=hidden;rotatable=0;points=[[0,0.5],[1,0.5]];portConstraint=eastwest;whiteSpace=wrap;html=1;" parent="FDom4B-1fI0kme8VLFCk-207" vertex="1">
          <mxGeometry y="48" width="210" height="26" as="geometry" />
        </mxCell>
        <mxCell id="SJU77nNtgm_mmSQfWu9N-1" value="&lt;span style=&quot;font-weight: normal;&quot;&gt;&amp;lt;&amp;lt;interface&amp;gt;&amp;gt;&lt;/span&gt;&lt;div&gt;IClientService&lt;/div&gt;" style="swimlane;fontStyle=1;align=center;verticalAlign=top;childLayout=stackLayout;horizontal=1;startSize=40;horizontalStack=0;resizeParent=1;resizeParentMax=0;resizeLast=0;collapsible=1;marginBottom=0;whiteSpace=wrap;html=1;" parent="1" vertex="1">
          <mxGeometry x="1780" y="-476" width="330" height="386" as="geometry" />
        </mxCell>
        <mxCell id="SJU77nNtgm_mmSQfWu9N-2" value="" style="line;strokeWidth=1;fillColor=none;align=left;verticalAlign=middle;spacingTop=-1;spacingLeft=3;spacingRight=3;rotatable=0;labelPosition=right;points=[];portConstraint=eastwest;strokeColor=inherit;" parent="SJU77nNtgm_mmSQfWu9N-1" vertex="1">
          <mxGeometry y="40" width="330" height="8" as="geometry" />
        </mxCell>
        <mxCell id="SJU77nNtgm_mmSQfWu9N-3" value="+ browseGuest(): void" style="text;strokeColor=none;fillColor=none;align=left;verticalAlign=top;spacingLeft=4;spacingRight=4;overflow=hidden;rotatable=0;points=[[0,0.5],[1,0.5]];portConstraint=eastwest;whiteSpace=wrap;html=1;" parent="SJU77nNtgm_mmSQfWu9N-1" vertex="1">
          <mxGeometry y="48" width="330" height="26" as="geometry" />
        </mxCell>
        <mxCell id="SJU77nNtgm_mmSQfWu9N-4" value="+ exitGuest(): void" style="text;strokeColor=none;fillColor=none;align=left;verticalAlign=top;spacingLeft=4;spacingRight=4;overflow=hidden;rotatable=0;points=[[0,0.5],[1,0.5]];portConstraint=eastwest;whiteSpace=wrap;html=1;" parent="SJU77nNtgm_mmSQfWu9N-1" vertex="1">
          <mxGeometry y="74" width="330" height="26" as="geometry" />
        </mxCell>
        <mxCell id="SJU77nNtgm_mmSQfWu9N-5" value="+ loginClient(): void" style="text;strokeColor=none;fillColor=none;align=left;verticalAlign=top;spacingLeft=4;spacingRight=4;overflow=hidden;rotatable=0;points=[[0,0.5],[1,0.5]];portConstraint=eastwest;whiteSpace=wrap;html=1;" parent="SJU77nNtgm_mmSQfWu9N-1" vertex="1">
          <mxGeometry y="100" width="330" height="26" as="geometry" />
        </mxCell>
        <mxCell id="SJU77nNtgm_mmSQfWu9N-7" value="+ signupClient(): void" style="text;strokeColor=none;fillColor=none;align=left;verticalAlign=top;spacingLeft=4;spacingRight=4;overflow=hidden;rotatable=0;points=[[0,0.5],[1,0.5]];portConstraint=eastwest;whiteSpace=wrap;html=1;" parent="SJU77nNtgm_mmSQfWu9N-1" vertex="1">
          <mxGeometry y="126" width="330" height="26" as="geometry" />
        </mxCell>
        <mxCell id="SJU77nNtgm_mmSQfWu9N-6" value="+ logoutClient(): void" style="text;strokeColor=none;fillColor=none;align=left;verticalAlign=top;spacingLeft=4;spacingRight=4;overflow=hidden;rotatable=0;points=[[0,0.5],[1,0.5]];portConstraint=eastwest;whiteSpace=wrap;html=1;" parent="SJU77nNtgm_mmSQfWu9N-1" vertex="1">
          <mxGeometry y="152" width="330" height="26" as="geometry" />
        </mxCell>
        <mxCell id="SJU77nNtgm_mmSQfWu9N-9" value="+ addToCart(): void" style="text;strokeColor=none;fillColor=none;align=left;verticalAlign=top;spacingLeft=4;spacingRight=4;overflow=hidden;rotatable=0;points=[[0,0.5],[1,0.5]];portConstraint=eastwest;whiteSpace=wrap;html=1;" parent="SJU77nNtgm_mmSQfWu9N-1" vertex="1">
          <mxGeometry y="178" width="330" height="26" as="geometry" />
        </mxCell>
        <mxCell id="SJU77nNtgm_mmSQfWu9N-42" value="+ viewCart(): void" style="text;strokeColor=none;fillColor=none;align=left;verticalAlign=top;spacingLeft=4;spacingRight=4;overflow=hidden;rotatable=0;points=[[0,0.5],[1,0.5]];portConstraint=eastwest;whiteSpace=wrap;html=1;" parent="SJU77nNtgm_mmSQfWu9N-1" vertex="1">
          <mxGeometry y="204" width="330" height="26" as="geometry" />
        </mxCell>
        <mxCell id="SJU77nNtgm_mmSQfWu9N-41" value="+ editCart(): void" style="text;strokeColor=none;fillColor=none;align=left;verticalAlign=top;spacingLeft=4;spacingRight=4;overflow=hidden;rotatable=0;points=[[0,0.5],[1,0.5]];portConstraint=eastwest;whiteSpace=wrap;html=1;" parent="SJU77nNtgm_mmSQfWu9N-1" vertex="1">
          <mxGeometry y="230" width="330" height="26" as="geometry" />
        </mxCell>
        <mxCell id="SJU77nNtgm_mmSQfWu9N-11" value="+ purchaseCart(): void" style="text;strokeColor=none;fillColor=none;align=left;verticalAlign=top;spacingLeft=4;spacingRight=4;overflow=hidden;rotatable=0;points=[[0,0.5],[1,0.5]];portConstraint=eastwest;whiteSpace=wrap;html=1;" parent="SJU77nNtgm_mmSQfWu9N-1" vertex="1">
          <mxGeometry y="256" width="330" height="26" as="geometry" />
        </mxCell>
        <mxCell id="SJU77nNtgm_mmSQfWu9N-10" value="+ logoutClient(): void" style="text;strokeColor=none;fillColor=none;align=left;verticalAlign=top;spacingLeft=4;spacingRight=4;overflow=hidden;rotatable=0;points=[[0,0.5],[1,0.5]];portConstraint=eastwest;whiteSpace=wrap;html=1;" parent="SJU77nNtgm_mmSQfWu9N-1" vertex="1">
          <mxGeometry y="282" width="330" height="26" as="geometry" />
        </mxCell>
        <mxCell id="SJU77nNtgm_mmSQfWu9N-12" value="+ createStore(): void" style="text;strokeColor=none;fillColor=none;align=left;verticalAlign=top;spacingLeft=4;spacingRight=4;overflow=hidden;rotatable=0;points=[[0,0.5],[1,0.5]];portConstraint=eastwest;whiteSpace=wrap;html=1;" parent="SJU77nNtgm_mmSQfWu9N-1" vertex="1">
          <mxGeometry y="308" width="330" height="26" as="geometry" />
        </mxCell>
        <mxCell id="SJU77nNtgm_mmSQfWu9N-47" value="+ resToStoreOwnershipReq(): void" style="text;strokeColor=none;fillColor=none;align=left;verticalAlign=top;spacingLeft=4;spacingRight=4;overflow=hidden;rotatable=0;points=[[0,0.5],[1,0.5]];portConstraint=eastwest;whiteSpace=wrap;html=1;" parent="SJU77nNtgm_mmSQfWu9N-1" vertex="1">
          <mxGeometry y="334" width="330" height="26" as="geometry" />
        </mxCell>
        <mxCell id="SJU77nNtgm_mmSQfWu9N-51" value="+ resToStoreManageReq(): void" style="text;strokeColor=none;fillColor=none;align=left;verticalAlign=top;spacingLeft=4;spacingRight=4;overflow=hidden;rotatable=0;points=[[0,0.5],[1,0.5]];portConstraint=eastwest;whiteSpace=wrap;html=1;" parent="SJU77nNtgm_mmSQfWu9N-1" vertex="1">
          <mxGeometry y="360" width="330" height="26" as="geometry" />
        </mxCell>
        <mxCell id="SJU77nNtgm_mmSQfWu9N-22" value="&lt;span style=&quot;font-weight: normal;&quot;&gt;&amp;lt;&amp;lt;interface&amp;gt;&amp;gt;&lt;/span&gt;&lt;div&gt;ISellerService&lt;/div&gt;" style="swimlane;fontStyle=1;align=center;verticalAlign=top;childLayout=stackLayout;horizontal=1;startSize=40;horizontalStack=0;resizeParent=1;resizeParentMax=0;resizeLast=0;collapsible=1;marginBottom=0;whiteSpace=wrap;html=1;" parent="1" vertex="1">
          <mxGeometry x="2170" y="-476" width="330" height="386" as="geometry" />
        </mxCell>
        <mxCell id="SJU77nNtgm_mmSQfWu9N-23" value="" style="line;strokeWidth=1;fillColor=none;align=left;verticalAlign=middle;spacingTop=-1;spacingLeft=3;spacingRight=3;rotatable=0;labelPosition=right;points=[];portConstraint=eastwest;strokeColor=inherit;" parent="SJU77nNtgm_mmSQfWu9N-22" vertex="1">
          <mxGeometry y="40" width="330" height="8" as="geometry" />
        </mxCell>
        <mxCell id="SJU77nNtgm_mmSQfWu9N-24" value="+ addItem(): void" style="text;strokeColor=none;fillColor=none;align=left;verticalAlign=top;spacingLeft=4;spacingRight=4;overflow=hidden;rotatable=0;points=[[0,0.5],[1,0.5]];portConstraint=eastwest;whiteSpace=wrap;html=1;" parent="SJU77nNtgm_mmSQfWu9N-22" vertex="1">
          <mxGeometry y="48" width="330" height="26" as="geometry" />
        </mxCell>
        <mxCell id="SJU77nNtgm_mmSQfWu9N-25" value="+ removeItem(): void" style="text;strokeColor=none;fillColor=none;align=left;verticalAlign=top;spacingLeft=4;spacingRight=4;overflow=hidden;rotatable=0;points=[[0,0.5],[1,0.5]];portConstraint=eastwest;whiteSpace=wrap;html=1;" parent="SJU77nNtgm_mmSQfWu9N-22" vertex="1">
          <mxGeometry y="74" width="330" height="26" as="geometry" />
        </mxCell>
        <mxCell id="SJU77nNtgm_mmSQfWu9N-26" value="+ editItem(): void" style="text;strokeColor=none;fillColor=none;align=left;verticalAlign=top;spacingLeft=4;spacingRight=4;overflow=hidden;rotatable=0;points=[[0,0.5],[1,0.5]];portConstraint=eastwest;whiteSpace=wrap;html=1;" parent="SJU77nNtgm_mmSQfWu9N-22" vertex="1">
          <mxGeometry y="100" width="330" height="26" as="geometry" />
        </mxCell>
        <mxCell id="SJU77nNtgm_mmSQfWu9N-27" value="+ editDiscountPolicy(): void" style="text;strokeColor=none;fillColor=none;align=left;verticalAlign=top;spacingLeft=4;spacingRight=4;overflow=hidden;rotatable=0;points=[[0,0.5],[1,0.5]];portConstraint=eastwest;whiteSpace=wrap;html=1;" parent="SJU77nNtgm_mmSQfWu9N-22" vertex="1">
          <mxGeometry y="126" width="330" height="26" as="geometry" />
        </mxCell>
        <mxCell id="SJU77nNtgm_mmSQfWu9N-43" value="+ editPurchasePolicy(): void" style="text;strokeColor=none;fillColor=none;align=left;verticalAlign=top;spacingLeft=4;spacingRight=4;overflow=hidden;rotatable=0;points=[[0,0.5],[1,0.5]];portConstraint=eastwest;whiteSpace=wrap;html=1;" parent="SJU77nNtgm_mmSQfWu9N-22" vertex="1">
          <mxGeometry y="152" width="330" height="26" as="geometry" />
        </mxCell>
        <mxCell id="SJU77nNtgm_mmSQfWu9N-44" value="+ addStoreOwner(): void" style="text;strokeColor=none;fillColor=none;align=left;verticalAlign=top;spacingLeft=4;spacingRight=4;overflow=hidden;rotatable=0;points=[[0,0.5],[1,0.5]];portConstraint=eastwest;whiteSpace=wrap;html=1;" parent="SJU77nNtgm_mmSQfWu9N-22" vertex="1">
          <mxGeometry y="178" width="330" height="26" as="geometry" />
        </mxCell>
        <mxCell id="SJU77nNtgm_mmSQfWu9N-45" value="+ editDiscountPolicy(): void" style="text;strokeColor=none;fillColor=none;align=left;verticalAlign=top;spacingLeft=4;spacingRight=4;overflow=hidden;rotatable=0;points=[[0,0.5],[1,0.5]];portConstraint=eastwest;whiteSpace=wrap;html=1;" parent="SJU77nNtgm_mmSQfWu9N-22" vertex="1">
          <mxGeometry y="204" width="330" height="26" as="geometry" />
        </mxCell>
        <mxCell id="SJU77nNtgm_mmSQfWu9N-46" value="+ editPurchasePolicy(): void" style="text;strokeColor=none;fillColor=none;align=left;verticalAlign=top;spacingLeft=4;spacingRight=4;overflow=hidden;rotatable=0;points=[[0,0.5],[1,0.5]];portConstraint=eastwest;whiteSpace=wrap;html=1;" parent="SJU77nNtgm_mmSQfWu9N-22" vertex="1">
          <mxGeometry y="230" width="330" height="26" as="geometry" />
        </mxCell>
        <mxCell id="SJU77nNtgm_mmSQfWu9N-48" value="+ addStoreManager(): void" style="text;strokeColor=none;fillColor=none;align=left;verticalAlign=top;spacingLeft=4;spacingRight=4;overflow=hidden;rotatable=0;points=[[0,0.5],[1,0.5]];portConstraint=eastwest;whiteSpace=wrap;html=1;" parent="SJU77nNtgm_mmSQfWu9N-22" vertex="1">
          <mxGeometry y="256" width="330" height="26" as="geometry" />
        </mxCell>
        <mxCell id="SJU77nNtgm_mmSQfWu9N-49" value="+ editManagerPermissions(): void" style="text;strokeColor=none;fillColor=none;align=left;verticalAlign=top;spacingLeft=4;spacingRight=4;overflow=hidden;rotatable=0;points=[[0,0.5],[1,0.5]];portConstraint=eastwest;whiteSpace=wrap;html=1;" parent="SJU77nNtgm_mmSQfWu9N-22" vertex="1">
          <mxGeometry y="282" width="330" height="26" as="geometry" />
        </mxCell>
        <mxCell id="SJU77nNtgm_mmSQfWu9N-50" value="+ deactivateStore(): void" style="text;strokeColor=none;fillColor=none;align=left;verticalAlign=top;spacingLeft=4;spacingRight=4;overflow=hidden;rotatable=0;points=[[0,0.5],[1,0.5]];portConstraint=eastwest;whiteSpace=wrap;html=1;" parent="SJU77nNtgm_mmSQfWu9N-22" vertex="1">
          <mxGeometry y="308" width="330" height="26" as="geometry" />
        </mxCell>
        <mxCell id="SJU77nNtgm_mmSQfWu9N-52" value="+ getBoard(): void" style="text;strokeColor=none;fillColor=none;align=left;verticalAlign=top;spacingLeft=4;spacingRight=4;overflow=hidden;rotatable=0;points=[[0,0.5],[1,0.5]];portConstraint=eastwest;whiteSpace=wrap;html=1;" parent="SJU77nNtgm_mmSQfWu9N-22" vertex="1">
          <mxGeometry y="334" width="330" height="26" as="geometry" />
        </mxCell>
        <mxCell id="SJU77nNtgm_mmSQfWu9N-53" value="+ getStorePurchaseHistory(): void" style="text;strokeColor=none;fillColor=none;align=left;verticalAlign=top;spacingLeft=4;spacingRight=4;overflow=hidden;rotatable=0;points=[[0,0.5],[1,0.5]];portConstraint=eastwest;whiteSpace=wrap;html=1;" parent="SJU77nNtgm_mmSQfWu9N-22" vertex="1">
          <mxGeometry y="360" width="330" height="26" as="geometry" />
        </mxCell>
        <mxCell id="SJU77nNtgm_mmSQfWu9N-54" value="&lt;span style=&quot;font-weight: normal;&quot;&gt;&amp;lt;&amp;lt;interface&amp;gt;&amp;gt;&lt;/span&gt;&lt;div&gt;ISystemManagerService&lt;/div&gt;" style="swimlane;fontStyle=1;align=center;verticalAlign=top;childLayout=stackLayout;horizontal=1;startSize=40;horizontalStack=0;resizeParent=1;resizeParentMax=0;resizeLast=0;collapsible=1;marginBottom=0;whiteSpace=wrap;html=1;" parent="1" vertex="1">
          <mxGeometry x="2550" y="-476" width="330" height="74" as="geometry" />
        </mxCell>
        <mxCell id="SJU77nNtgm_mmSQfWu9N-55" value="" style="line;strokeWidth=1;fillColor=none;align=left;verticalAlign=middle;spacingTop=-1;spacingLeft=3;spacingRight=3;rotatable=0;labelPosition=right;points=[];portConstraint=eastwest;strokeColor=inherit;" parent="SJU77nNtgm_mmSQfWu9N-54" vertex="1">
          <mxGeometry y="40" width="330" height="8" as="geometry" />
        </mxCell>
        <mxCell id="SJU77nNtgm_mmSQfWu9N-68" value="+ getSystemPurchaseHistory(): void" style="text;strokeColor=none;fillColor=none;align=left;verticalAlign=top;spacingLeft=4;spacingRight=4;overflow=hidden;rotatable=0;points=[[0,0.5],[1,0.5]];portConstraint=eastwest;whiteSpace=wrap;html=1;" parent="SJU77nNtgm_mmSQfWu9N-54" vertex="1">
          <mxGeometry y="48" width="330" height="26" as="geometry" />
        </mxCell>
        <mxCell id="SJU77nNtgm_mmSQfWu9N-69" value="&lt;p style=&quot;margin:0px;margin-top:4px;text-align:center;&quot;&gt;&lt;b&gt;ClientManager&lt;/b&gt;&lt;/p&gt;&lt;hr size=&quot;1&quot; style=&quot;border-style:solid;&quot;&gt;&lt;div style=&quot;height:2px;&quot;&gt;&lt;/div&gt;" style="verticalAlign=top;align=left;overflow=fill;html=1;whiteSpace=wrap;" parent="1" vertex="1">
          <mxGeometry x="1780" y="-60" width="330" height="60" as="geometry" />
        </mxCell>
        <mxCell id="SJU77nNtgm_mmSQfWu9N-70" value="&lt;p style=&quot;margin:0px;margin-top:4px;text-align:center;&quot;&gt;&lt;b&gt;SellerManager&lt;/b&gt;&lt;/p&gt;&lt;hr size=&quot;1&quot; style=&quot;border-style:solid;&quot;&gt;&lt;div style=&quot;height:2px;&quot;&gt;&lt;/div&gt;" style="verticalAlign=top;align=left;overflow=fill;html=1;whiteSpace=wrap;" parent="1" vertex="1">
          <mxGeometry x="2170" y="-60" width="330" height="60" as="geometry" />
        </mxCell>
        <mxCell id="SJU77nNtgm_mmSQfWu9N-71" value="&lt;p style=&quot;margin:0px;margin-top:4px;text-align:center;&quot;&gt;&lt;b&gt;SysManagerManager&lt;/b&gt;&lt;/p&gt;&lt;hr size=&quot;1&quot; style=&quot;border-style:solid;&quot;&gt;&lt;div style=&quot;height:2px;&quot;&gt;&lt;/div&gt;" style="verticalAlign=top;align=left;overflow=fill;html=1;whiteSpace=wrap;" parent="1" vertex="1">
          <mxGeometry x="2550" y="-380" width="330" height="60" as="geometry" />
        </mxCell>
        <mxCell id="SJU77nNtgm_mmSQfWu9N-74" value="&lt;span style=&quot;font-size: 30px;&quot;&gt;client&lt;/span&gt;" style="shape=umlFrame;whiteSpace=wrap;html=1;pointerEvents=0;width=240;height=90;" parent="1" vertex="1">
          <mxGeometry x="2600" y="250" width="860" height="1680" as="geometry" />
        </mxCell>
        <mxCell id="SJU77nNtgm_mmSQfWu9N-86" value="&lt;span style=&quot;font-weight: normal;&quot;&gt;&amp;lt;&amp;lt;interface&amp;gt;&amp;gt;&lt;/span&gt;&lt;div&gt;ClientFacade&lt;/div&gt;" style="swimlane;fontStyle=1;align=center;verticalAlign=top;childLayout=stackLayout;horizontal=1;startSize=40;horizontalStack=0;resizeParent=1;resizeParentMax=0;resizeLast=0;collapsible=1;marginBottom=0;whiteSpace=wrap;html=1;" parent="1" vertex="1">
          <mxGeometry x="2730" y="430" width="330" height="516" as="geometry" />
        </mxCell>
        <mxCell id="SJU77nNtgm_mmSQfWu9N-87" value="" style="line;strokeWidth=1;fillColor=none;align=left;verticalAlign=middle;spacingTop=-1;spacingLeft=3;spacingRight=3;rotatable=0;labelPosition=right;points=[];portConstraint=eastwest;strokeColor=inherit;" parent="SJU77nNtgm_mmSQfWu9N-86" vertex="1">
          <mxGeometry y="40" width="330" height="8" as="geometry" />
        </mxCell>
        <mxCell id="SJU77nNtgm_mmSQfWu9N-88" value="+ browseGuest(): void" style="text;strokeColor=none;fillColor=none;align=left;verticalAlign=top;spacingLeft=4;spacingRight=4;overflow=hidden;rotatable=0;points=[[0,0.5],[1,0.5]];portConstraint=eastwest;whiteSpace=wrap;html=1;" parent="SJU77nNtgm_mmSQfWu9N-86" vertex="1">
          <mxGeometry y="48" width="330" height="26" as="geometry" />
        </mxCell>
        <mxCell id="SJU77nNtgm_mmSQfWu9N-89" value="+ exitGuest(): void" style="text;strokeColor=none;fillColor=none;align=left;verticalAlign=top;spacingLeft=4;spacingRight=4;overflow=hidden;rotatable=0;points=[[0,0.5],[1,0.5]];portConstraint=eastwest;whiteSpace=wrap;html=1;" parent="SJU77nNtgm_mmSQfWu9N-86" vertex="1">
          <mxGeometry y="74" width="330" height="26" as="geometry" />
        </mxCell>
        <mxCell id="SJU77nNtgm_mmSQfWu9N-90" value="+ loginClient(): void" style="text;strokeColor=none;fillColor=none;align=left;verticalAlign=top;spacingLeft=4;spacingRight=4;overflow=hidden;rotatable=0;points=[[0,0.5],[1,0.5]];portConstraint=eastwest;whiteSpace=wrap;html=1;" parent="SJU77nNtgm_mmSQfWu9N-86" vertex="1">
          <mxGeometry y="100" width="330" height="26" as="geometry" />
        </mxCell>
        <mxCell id="SJU77nNtgm_mmSQfWu9N-91" value="+ signupClient(): void" style="text;strokeColor=none;fillColor=none;align=left;verticalAlign=top;spacingLeft=4;spacingRight=4;overflow=hidden;rotatable=0;points=[[0,0.5],[1,0.5]];portConstraint=eastwest;whiteSpace=wrap;html=1;" parent="SJU77nNtgm_mmSQfWu9N-86" vertex="1">
          <mxGeometry y="126" width="330" height="26" as="geometry" />
        </mxCell>
        <mxCell id="SJU77nNtgm_mmSQfWu9N-92" value="+ logoutClient(): void" style="text;strokeColor=none;fillColor=none;align=left;verticalAlign=top;spacingLeft=4;spacingRight=4;overflow=hidden;rotatable=0;points=[[0,0.5],[1,0.5]];portConstraint=eastwest;whiteSpace=wrap;html=1;" parent="SJU77nNtgm_mmSQfWu9N-86" vertex="1">
          <mxGeometry y="152" width="330" height="26" as="geometry" />
        </mxCell>
        <mxCell id="SJU77nNtgm_mmSQfWu9N-93" value="+ addToCart(): void" style="text;strokeColor=none;fillColor=none;align=left;verticalAlign=top;spacingLeft=4;spacingRight=4;overflow=hidden;rotatable=0;points=[[0,0.5],[1,0.5]];portConstraint=eastwest;whiteSpace=wrap;html=1;" parent="SJU77nNtgm_mmSQfWu9N-86" vertex="1">
          <mxGeometry y="178" width="330" height="26" as="geometry" />
        </mxCell>
        <mxCell id="SJU77nNtgm_mmSQfWu9N-94" value="+ viewCart(): void" style="text;strokeColor=none;fillColor=none;align=left;verticalAlign=top;spacingLeft=4;spacingRight=4;overflow=hidden;rotatable=0;points=[[0,0.5],[1,0.5]];portConstraint=eastwest;whiteSpace=wrap;html=1;" parent="SJU77nNtgm_mmSQfWu9N-86" vertex="1">
          <mxGeometry y="204" width="330" height="26" as="geometry" />
        </mxCell>
        <mxCell id="SJU77nNtgm_mmSQfWu9N-95" value="+ editCart(): void" style="text;strokeColor=none;fillColor=none;align=left;verticalAlign=top;spacingLeft=4;spacingRight=4;overflow=hidden;rotatable=0;points=[[0,0.5],[1,0.5]];portConstraint=eastwest;whiteSpace=wrap;html=1;" parent="SJU77nNtgm_mmSQfWu9N-86" vertex="1">
          <mxGeometry y="230" width="330" height="26" as="geometry" />
        </mxCell>
        <mxCell id="SJU77nNtgm_mmSQfWu9N-96" value="+ purchaseCart(): void" style="text;strokeColor=none;fillColor=none;align=left;verticalAlign=top;spacingLeft=4;spacingRight=4;overflow=hidden;rotatable=0;points=[[0,0.5],[1,0.5]];portConstraint=eastwest;whiteSpace=wrap;html=1;" parent="SJU77nNtgm_mmSQfWu9N-86" vertex="1">
          <mxGeometry y="256" width="330" height="26" as="geometry" />
        </mxCell>
        <mxCell id="SJU77nNtgm_mmSQfWu9N-99" value="+ resToStoreOwnershipReq(): void" style="text;strokeColor=none;fillColor=none;align=left;verticalAlign=top;spacingLeft=4;spacingRight=4;overflow=hidden;rotatable=0;points=[[0,0.5],[1,0.5]];portConstraint=eastwest;whiteSpace=wrap;html=1;" parent="SJU77nNtgm_mmSQfWu9N-86" vertex="1">
          <mxGeometry y="282" width="330" height="26" as="geometry" />
        </mxCell>
        <mxCell id="SJU77nNtgm_mmSQfWu9N-100" value="+ resToStoreManageReq(): void" style="text;strokeColor=none;fillColor=none;align=left;verticalAlign=top;spacingLeft=4;spacingRight=4;overflow=hidden;rotatable=0;points=[[0,0.5],[1,0.5]];portConstraint=eastwest;whiteSpace=wrap;html=1;" parent="SJU77nNtgm_mmSQfWu9N-86" vertex="1">
          <mxGeometry y="308" width="330" height="26" as="geometry" />
        </mxCell>
        <mxCell id="SJU77nNtgm_mmSQfWu9N-214" value="+ addStoreOwner(): void" style="text;strokeColor=none;fillColor=none;align=left;verticalAlign=top;spacingLeft=4;spacingRight=4;overflow=hidden;rotatable=0;points=[[0,0.5],[1,0.5]];portConstraint=eastwest;whiteSpace=wrap;html=1;" parent="SJU77nNtgm_mmSQfWu9N-86" vertex="1">
          <mxGeometry y="334" width="330" height="26" as="geometry" />
        </mxCell>
        <mxCell id="SJU77nNtgm_mmSQfWu9N-220" value="+ getBoard(): void" style="text;strokeColor=none;fillColor=none;align=left;verticalAlign=top;spacingLeft=4;spacingRight=4;overflow=hidden;rotatable=0;points=[[0,0.5],[1,0.5]];portConstraint=eastwest;whiteSpace=wrap;html=1;" parent="SJU77nNtgm_mmSQfWu9N-86" vertex="1">
          <mxGeometry y="360" width="330" height="26" as="geometry" />
        </mxCell>
        <mxCell id="SJU77nNtgm_mmSQfWu9N-219" value="+ deactivateStore(): void" style="text;strokeColor=none;fillColor=none;align=left;verticalAlign=top;spacingLeft=4;spacingRight=4;overflow=hidden;rotatable=0;points=[[0,0.5],[1,0.5]];portConstraint=eastwest;whiteSpace=wrap;html=1;" parent="SJU77nNtgm_mmSQfWu9N-86" vertex="1">
          <mxGeometry y="386" width="330" height="26" as="geometry" />
        </mxCell>
        <mxCell id="SJU77nNtgm_mmSQfWu9N-218" value="+ editManagerPermissions(): void" style="text;strokeColor=none;fillColor=none;align=left;verticalAlign=top;spacingLeft=4;spacingRight=4;overflow=hidden;rotatable=0;points=[[0,0.5],[1,0.5]];portConstraint=eastwest;whiteSpace=wrap;html=1;" parent="SJU77nNtgm_mmSQfWu9N-86" vertex="1">
          <mxGeometry y="412" width="330" height="26" as="geometry" />
        </mxCell>
        <mxCell id="SJU77nNtgm_mmSQfWu9N-217" value="+ addStoreManager(): void" style="text;strokeColor=none;fillColor=none;align=left;verticalAlign=top;spacingLeft=4;spacingRight=4;overflow=hidden;rotatable=0;points=[[0,0.5],[1,0.5]];portConstraint=eastwest;whiteSpace=wrap;html=1;" parent="SJU77nNtgm_mmSQfWu9N-86" vertex="1">
          <mxGeometry y="438" width="330" height="26" as="geometry" />
        </mxCell>
        <mxCell id="SJU77nNtgm_mmSQfWu9N-216" value="+ editPurchasePolicy(): void" style="text;strokeColor=none;fillColor=none;align=left;verticalAlign=top;spacingLeft=4;spacingRight=4;overflow=hidden;rotatable=0;points=[[0,0.5],[1,0.5]];portConstraint=eastwest;whiteSpace=wrap;html=1;" parent="SJU77nNtgm_mmSQfWu9N-86" vertex="1">
          <mxGeometry y="464" width="330" height="26" as="geometry" />
        </mxCell>
        <mxCell id="SJU77nNtgm_mmSQfWu9N-232" value="+ getSystemPurchaseHistory(): void" style="text;strokeColor=none;fillColor=none;align=left;verticalAlign=top;spacingLeft=4;spacingRight=4;overflow=hidden;rotatable=0;points=[[0,0.5],[1,0.5]];portConstraint=eastwest;whiteSpace=wrap;html=1;" parent="SJU77nNtgm_mmSQfWu9N-86" vertex="1">
          <mxGeometry y="490" width="330" height="26" as="geometry" />
        </mxCell>
        <mxCell id="SJU77nNtgm_mmSQfWu9N-101" style="edgeStyle=orthogonalEdgeStyle;rounded=0;orthogonalLoop=1;jettySize=auto;html=1;exitX=0.5;exitY=1;exitDx=0;exitDy=0;entryX=0;entryY=0.5;entryDx=0;entryDy=0;dashed=1;endArrow=open;endFill=0;" parent="1" source="SJU77nNtgm_mmSQfWu9N-69" target="SJU77nNtgm_mmSQfWu9N-105" edge="1">
          <mxGeometry relative="1" as="geometry">
            <mxPoint x="1525" y="-226" as="sourcePoint" />
            <mxPoint x="2145" y="400" as="targetPoint" />
            <Array as="points">
              <mxPoint x="1945" y="60" />
              <mxPoint x="2630" y="60" />
              <mxPoint x="2630" y="1199" />
            </Array>
          </mxGeometry>
        </mxCell>
        <mxCell id="SJU77nNtgm_mmSQfWu9N-102" value="&amp;lt;&amp;lt;use&amp;gt;&amp;gt;" style="edgeLabel;html=1;align=center;verticalAlign=middle;resizable=0;points=[];" parent="SJU77nNtgm_mmSQfWu9N-101" vertex="1" connectable="0">
          <mxGeometry x="-0.9501" y="-1" relative="1" as="geometry">
            <mxPoint as="offset" />
          </mxGeometry>
        </mxCell>
        <mxCell id="SJU77nNtgm_mmSQfWu9N-104" style="edgeStyle=orthogonalEdgeStyle;rounded=0;orthogonalLoop=1;jettySize=auto;html=1;exitX=0.5;exitY=0;exitDx=0;exitDy=0;dashed=1;dashPattern=8 8;endArrow=block;endFill=0;entryX=0.319;entryY=1.003;entryDx=0;entryDy=0;entryPerimeter=0;" parent="1" source="SJU77nNtgm_mmSQfWu9N-105" target="SJU77nNtgm_mmSQfWu9N-232" edge="1">
          <mxGeometry relative="1" as="geometry">
            <mxPoint x="2835" y="1160" as="targetPoint" />
          </mxGeometry>
        </mxCell>
        <mxCell id="SJU77nNtgm_mmSQfWu9N-105" value="&lt;p style=&quot;margin:0px;margin-top:4px;text-align:center;&quot;&gt;&lt;b&gt;ClientFacade&lt;/b&gt;&lt;/p&gt;&lt;hr size=&quot;1&quot; style=&quot;border-style:solid;&quot;&gt;&lt;div style=&quot;height:2px;&quot;&gt;&lt;/div&gt;" style="verticalAlign=top;align=left;overflow=fill;html=1;whiteSpace=wrap;" parent="1" vertex="1">
          <mxGeometry x="2670" y="1180" width="330" height="60" as="geometry" />
        </mxCell>
        <mxCell id="SJU77nNtgm_mmSQfWu9N-106" style="edgeStyle=orthogonalEdgeStyle;rounded=0;orthogonalLoop=1;jettySize=auto;html=1;exitX=0.5;exitY=0;exitDx=0;exitDy=0;endArrow=diamondThin;endFill=1;startSize=6;endSize=11;entryX=0.5;entryY=1;entryDx=0;entryDy=0;" parent="1" source="SJU77nNtgm_mmSQfWu9N-107" target="SJU77nNtgm_mmSQfWu9N-105" edge="1">
          <mxGeometry relative="1" as="geometry">
            <mxPoint x="2845" y="1279" as="targetPoint" />
          </mxGeometry>
        </mxCell>
        <mxCell id="SJU77nNtgm_mmSQfWu9N-107" value="Client" style="swimlane;fontStyle=1;align=center;verticalAlign=top;childLayout=stackLayout;horizontal=1;startSize=26;horizontalStack=0;resizeParent=1;resizeParentMax=0;resizeLast=0;collapsible=1;marginBottom=0;whiteSpace=wrap;html=1;" parent="1" vertex="1">
          <mxGeometry x="2670" y="1339" width="330" height="372" as="geometry" />
        </mxCell>
        <mxCell id="SJU77nNtgm_mmSQfWu9N-108" value="- clientId: int" style="text;strokeColor=none;fillColor=none;align=left;verticalAlign=top;spacingLeft=4;spacingRight=4;overflow=hidden;rotatable=0;points=[[0,0.5],[1,0.5]];portConstraint=eastwest;whiteSpace=wrap;html=1;" parent="SJU77nNtgm_mmSQfWu9N-107" vertex="1">
          <mxGeometry y="26" width="330" height="26" as="geometry" />
        </mxCell>
        <mxCell id="SJU77nNtgm_mmSQfWu9N-155" value="- isLoggedIn: bool" style="text;strokeColor=none;fillColor=none;align=left;verticalAlign=top;spacingLeft=4;spacingRight=4;overflow=hidden;rotatable=0;points=[[0,0.5],[1,0.5]];portConstraint=eastwest;whiteSpace=wrap;html=1;" parent="SJU77nNtgm_mmSQfWu9N-107" vertex="1">
          <mxGeometry y="52" width="330" height="26" as="geometry" />
        </mxCell>
        <mxCell id="SJU77nNtgm_mmSQfWu9N-156" value="- history: int[]" style="text;strokeColor=none;fillColor=none;align=left;verticalAlign=top;spacingLeft=4;spacingRight=4;overflow=hidden;rotatable=0;points=[[0,0.5],[1,0.5]];portConstraint=eastwest;whiteSpace=wrap;html=1;" parent="SJU77nNtgm_mmSQfWu9N-107" vertex="1">
          <mxGeometry y="78" width="330" height="26" as="geometry" />
        </mxCell>
        <mxCell id="SJU77nNtgm_mmSQfWu9N-166" value="- roles: map&amp;lt;int, Role&amp;gt;" style="text;strokeColor=none;fillColor=none;align=left;verticalAlign=top;spacingLeft=4;spacingRight=4;overflow=hidden;rotatable=0;points=[[0,0.5],[1,0.5]];portConstraint=eastwest;whiteSpace=wrap;html=1;" parent="SJU77nNtgm_mmSQfWu9N-107" vertex="1">
          <mxGeometry y="104" width="330" height="26" as="geometry" />
        </mxCell>
        <mxCell id="SJU77nNtgm_mmSQfWu9N-228" value="- sysManeger: SysManager" style="text;strokeColor=none;fillColor=none;align=left;verticalAlign=top;spacingLeft=4;spacingRight=4;overflow=hidden;rotatable=0;points=[[0,0.5],[1,0.5]];portConstraint=eastwest;whiteSpace=wrap;html=1;" parent="SJU77nNtgm_mmSQfWu9N-107" vertex="1">
          <mxGeometry y="130" width="330" height="26" as="geometry" />
        </mxCell>
        <mxCell id="SJU77nNtgm_mmSQfWu9N-113" value="" style="line;strokeWidth=1;fillColor=none;align=left;verticalAlign=middle;spacingTop=-1;spacingLeft=3;spacingRight=3;rotatable=0;labelPosition=right;points=[];portConstraint=eastwest;strokeColor=inherit;" parent="SJU77nNtgm_mmSQfWu9N-107" vertex="1">
          <mxGeometry y="156" width="330" height="8" as="geometry" />
        </mxCell>
        <mxCell id="SJU77nNtgm_mmSQfWu9N-159" value="+ loginClient(): void" style="text;strokeColor=none;fillColor=none;align=left;verticalAlign=top;spacingLeft=4;spacingRight=4;overflow=hidden;rotatable=0;points=[[0,0.5],[1,0.5]];portConstraint=eastwest;whiteSpace=wrap;html=1;" parent="SJU77nNtgm_mmSQfWu9N-107" vertex="1">
          <mxGeometry y="164" width="330" height="26" as="geometry" />
        </mxCell>
        <mxCell id="SJU77nNtgm_mmSQfWu9N-160" value="+ signupClient(): void" style="text;strokeColor=none;fillColor=none;align=left;verticalAlign=top;spacingLeft=4;spacingRight=4;overflow=hidden;rotatable=0;points=[[0,0.5],[1,0.5]];portConstraint=eastwest;whiteSpace=wrap;html=1;" parent="SJU77nNtgm_mmSQfWu9N-107" vertex="1">
          <mxGeometry y="190" width="330" height="26" as="geometry" />
        </mxCell>
        <mxCell id="SJU77nNtgm_mmSQfWu9N-161" value="+ logoutClient(): void" style="text;strokeColor=none;fillColor=none;align=left;verticalAlign=top;spacingLeft=4;spacingRight=4;overflow=hidden;rotatable=0;points=[[0,0.5],[1,0.5]];portConstraint=eastwest;whiteSpace=wrap;html=1;" parent="SJU77nNtgm_mmSQfWu9N-107" vertex="1">
          <mxGeometry y="216" width="330" height="26" as="geometry" />
        </mxCell>
        <mxCell id="SJU77nNtgm_mmSQfWu9N-162" value="+ addToCart(): void" style="text;strokeColor=none;fillColor=none;align=left;verticalAlign=top;spacingLeft=4;spacingRight=4;overflow=hidden;rotatable=0;points=[[0,0.5],[1,0.5]];portConstraint=eastwest;whiteSpace=wrap;html=1;" parent="SJU77nNtgm_mmSQfWu9N-107" vertex="1">
          <mxGeometry y="242" width="330" height="26" as="geometry" />
        </mxCell>
        <mxCell id="SJU77nNtgm_mmSQfWu9N-164" value="+ editCart(): void" style="text;strokeColor=none;fillColor=none;align=left;verticalAlign=top;spacingLeft=4;spacingRight=4;overflow=hidden;rotatable=0;points=[[0,0.5],[1,0.5]];portConstraint=eastwest;whiteSpace=wrap;html=1;" parent="SJU77nNtgm_mmSQfWu9N-107" vertex="1">
          <mxGeometry y="268" width="330" height="26" as="geometry" />
        </mxCell>
        <mxCell id="SJU77nNtgm_mmSQfWu9N-163" value="+ viewCart(): void" style="text;strokeColor=none;fillColor=none;align=left;verticalAlign=top;spacingLeft=4;spacingRight=4;overflow=hidden;rotatable=0;points=[[0,0.5],[1,0.5]];portConstraint=eastwest;whiteSpace=wrap;html=1;" parent="SJU77nNtgm_mmSQfWu9N-107" vertex="1">
          <mxGeometry y="294" width="330" height="26" as="geometry" />
        </mxCell>
        <mxCell id="SJU77nNtgm_mmSQfWu9N-168" value="+ resToStoreOwnershipReq(): void" style="text;strokeColor=none;fillColor=none;align=left;verticalAlign=top;spacingLeft=4;spacingRight=4;overflow=hidden;rotatable=0;points=[[0,0.5],[1,0.5]];portConstraint=eastwest;whiteSpace=wrap;html=1;" parent="SJU77nNtgm_mmSQfWu9N-107" vertex="1">
          <mxGeometry y="320" width="330" height="26" as="geometry" />
        </mxCell>
        <mxCell id="SJU77nNtgm_mmSQfWu9N-169" value="+ resToStoreManageReq(): void" style="text;strokeColor=none;fillColor=none;align=left;verticalAlign=top;spacingLeft=4;spacingRight=4;overflow=hidden;rotatable=0;points=[[0,0.5],[1,0.5]];portConstraint=eastwest;whiteSpace=wrap;html=1;" parent="SJU77nNtgm_mmSQfWu9N-107" vertex="1">
          <mxGeometry y="346" width="330" height="26" as="geometry" />
        </mxCell>
        <mxCell id="SJU77nNtgm_mmSQfWu9N-146" value="Basket" style="swimlane;fontStyle=1;align=center;verticalAlign=top;childLayout=stackLayout;horizontal=1;startSize=30;horizontalStack=0;resizeParent=1;resizeParentMax=0;resizeLast=0;collapsible=1;marginBottom=0;whiteSpace=wrap;html=1;" parent="1" vertex="1">
          <mxGeometry x="3090" y="1169" width="330" height="142" as="geometry" />
        </mxCell>
        <mxCell id="SJU77nNtgm_mmSQfWu9N-152" value="- items: map&amp;lt;int, int&amp;gt;" style="text;strokeColor=none;fillColor=none;align=left;verticalAlign=top;spacingLeft=4;spacingRight=4;overflow=hidden;rotatable=0;points=[[0,0.5],[1,0.5]];portConstraint=eastwest;whiteSpace=wrap;html=1;" parent="SJU77nNtgm_mmSQfWu9N-146" vertex="1">
          <mxGeometry y="30" width="330" height="26" as="geometry" />
        </mxCell>
        <mxCell id="SJU77nNtgm_mmSQfWu9N-148" value="" style="line;strokeWidth=1;fillColor=none;align=left;verticalAlign=middle;spacingTop=-1;spacingLeft=3;spacingRight=3;rotatable=0;labelPosition=right;points=[];portConstraint=eastwest;strokeColor=inherit;" parent="SJU77nNtgm_mmSQfWu9N-146" vertex="1">
          <mxGeometry y="56" width="330" height="8" as="geometry" />
        </mxCell>
        <mxCell id="SJU77nNtgm_mmSQfWu9N-149" value="+ addItem(): void" style="text;strokeColor=none;fillColor=none;align=left;verticalAlign=top;spacingLeft=4;spacingRight=4;overflow=hidden;rotatable=0;points=[[0,0.5],[1,0.5]];portConstraint=eastwest;whiteSpace=wrap;html=1;" parent="SJU77nNtgm_mmSQfWu9N-146" vertex="1">
          <mxGeometry y="64" width="330" height="26" as="geometry" />
        </mxCell>
        <mxCell id="SJU77nNtgm_mmSQfWu9N-150" value="+ removeItem(): void" style="text;strokeColor=none;fillColor=none;align=left;verticalAlign=top;spacingLeft=4;spacingRight=4;overflow=hidden;rotatable=0;points=[[0,0.5],[1,0.5]];portConstraint=eastwest;whiteSpace=wrap;html=1;" parent="SJU77nNtgm_mmSQfWu9N-146" vertex="1">
          <mxGeometry y="90" width="330" height="26" as="geometry" />
        </mxCell>
        <mxCell id="SJU77nNtgm_mmSQfWu9N-151" value="+ viewBasket(): void" style="text;strokeColor=none;fillColor=none;align=left;verticalAlign=top;spacingLeft=4;spacingRight=4;overflow=hidden;rotatable=0;points=[[0,0.5],[1,0.5]];portConstraint=eastwest;whiteSpace=wrap;html=1;" parent="SJU77nNtgm_mmSQfWu9N-146" vertex="1">
          <mxGeometry y="116" width="330" height="26" as="geometry" />
        </mxCell>
        <mxCell id="SJU77nNtgm_mmSQfWu9N-153" style="edgeStyle=orthogonalEdgeStyle;rounded=0;orthogonalLoop=1;jettySize=auto;html=1;exitX=0;exitY=0.5;exitDx=0;exitDy=0;endArrow=diamondThin;endFill=1;startSize=6;endSize=11;entryX=0.75;entryY=0;entryDx=0;entryDy=0;" parent="1" source="SJU77nNtgm_mmSQfWu9N-150" target="SJU77nNtgm_mmSQfWu9N-107" edge="1">
          <mxGeometry relative="1" as="geometry">
            <mxPoint x="2999.999999999999" y="1430" as="targetPoint" />
            <mxPoint x="3080" y="1516" as="sourcePoint" />
          </mxGeometry>
        </mxCell>
        <mxCell id="SJU77nNtgm_mmSQfWu9N-154" value="cart" style="edgeLabel;html=1;align=center;verticalAlign=middle;resizable=0;points=[];" parent="SJU77nNtgm_mmSQfWu9N-153" vertex="1" connectable="0">
          <mxGeometry x="0.0641" relative="1" as="geometry">
            <mxPoint as="offset" />
          </mxGeometry>
        </mxCell>
        <mxCell id="SJU77nNtgm_mmSQfWu9N-170" value="&lt;span style=&quot;font-weight: normal;&quot;&gt;&amp;lt;&amp;lt;Enum&amp;gt;&amp;gt;&lt;/span&gt;&lt;div&gt;Role&lt;/div&gt;" style="swimlane;fontStyle=1;align=center;verticalAlign=top;childLayout=stackLayout;horizontal=1;startSize=40;horizontalStack=0;resizeParent=1;resizeParentMax=0;resizeLast=0;collapsible=1;marginBottom=0;whiteSpace=wrap;html=1;" parent="1" vertex="1">
          <mxGeometry x="3090" y="1379" width="330" height="126" as="geometry" />
        </mxCell>
        <mxCell id="SJU77nNtgm_mmSQfWu9N-171" value="" style="line;strokeWidth=1;fillColor=none;align=left;verticalAlign=middle;spacingTop=-1;spacingLeft=3;spacingRight=3;rotatable=0;labelPosition=right;points=[];portConstraint=eastwest;strokeColor=inherit;" parent="SJU77nNtgm_mmSQfWu9N-170" vertex="1">
          <mxGeometry y="40" width="330" height="8" as="geometry" />
        </mxCell>
        <mxCell id="SJU77nNtgm_mmSQfWu9N-175" value="- Manager" style="text;strokeColor=none;fillColor=none;align=left;verticalAlign=top;spacingLeft=4;spacingRight=4;overflow=hidden;rotatable=0;points=[[0,0.5],[1,0.5]];portConstraint=eastwest;whiteSpace=wrap;html=1;" parent="SJU77nNtgm_mmSQfWu9N-170" vertex="1">
          <mxGeometry y="48" width="330" height="26" as="geometry" />
        </mxCell>
        <mxCell id="SJU77nNtgm_mmSQfWu9N-176" value="- Owner" style="text;strokeColor=none;fillColor=none;align=left;verticalAlign=top;spacingLeft=4;spacingRight=4;overflow=hidden;rotatable=0;points=[[0,0.5],[1,0.5]];portConstraint=eastwest;whiteSpace=wrap;html=1;" parent="SJU77nNtgm_mmSQfWu9N-170" vertex="1">
          <mxGeometry y="74" width="330" height="26" as="geometry" />
        </mxCell>
        <mxCell id="SJU77nNtgm_mmSQfWu9N-177" value="- Founder" style="text;strokeColor=none;fillColor=none;align=left;verticalAlign=top;spacingLeft=4;spacingRight=4;overflow=hidden;rotatable=0;points=[[0,0.5],[1,0.5]];portConstraint=eastwest;whiteSpace=wrap;html=1;" parent="SJU77nNtgm_mmSQfWu9N-170" vertex="1">
          <mxGeometry y="100" width="330" height="26" as="geometry" />
        </mxCell>
        <mxCell id="SJU77nNtgm_mmSQfWu9N-203" style="edgeStyle=orthogonalEdgeStyle;rounded=0;orthogonalLoop=1;jettySize=auto;html=1;exitX=0.464;exitY=1.021;exitDx=0;exitDy=0;entryX=0.5;entryY=0;entryDx=0;entryDy=0;dashed=1;endArrow=open;endFill=0;exitPerimeter=0;" parent="1" source="SJU77nNtgm_mmSQfWu9N-70" target="SJU77nNtgm_mmSQfWu9N-86" edge="1">
          <mxGeometry relative="1" as="geometry">
            <mxPoint x="1955" y="10" as="sourcePoint" />
            <mxPoint x="2690" y="890" as="targetPoint" />
            <Array as="points">
              <mxPoint x="2320" y="1" />
              <mxPoint x="2320" y="40" />
              <mxPoint x="2855" y="40" />
              <mxPoint x="2855" y="410" />
              <mxPoint x="2895" y="410" />
            </Array>
          </mxGeometry>
        </mxCell>
        <mxCell id="SJU77nNtgm_mmSQfWu9N-204" value="&amp;lt;&amp;lt;use&amp;gt;&amp;gt;" style="edgeLabel;html=1;align=center;verticalAlign=middle;resizable=0;points=[];" parent="SJU77nNtgm_mmSQfWu9N-203" vertex="1" connectable="0">
          <mxGeometry x="-0.9501" y="-1" relative="1" as="geometry">
            <mxPoint y="19" as="offset" />
          </mxGeometry>
        </mxCell>
        <mxCell id="SJU77nNtgm_mmSQfWu9N-207" style="edgeStyle=orthogonalEdgeStyle;rounded=0;orthogonalLoop=1;jettySize=auto;html=1;exitX=0.461;exitY=1.021;exitDx=0;exitDy=0;entryX=0.407;entryY=-0.006;entryDx=0;entryDy=0;dashed=1;endArrow=open;endFill=0;exitPerimeter=0;entryPerimeter=0;" parent="1" source="SJU77nNtgm_mmSQfWu9N-70" target="pJkwpibmYWs6iMc-g0Pl-38" edge="1">
          <mxGeometry relative="1" as="geometry">
            <mxPoint x="2333" y="11" as="sourcePoint" />
            <mxPoint x="2865" y="390" as="targetPoint" />
            <Array as="points">
              <mxPoint x="2320" y="1" />
              <mxPoint x="2320" y="40" />
              <mxPoint x="1226" y="40" />
            </Array>
          </mxGeometry>
        </mxCell>
        <mxCell id="SJU77nNtgm_mmSQfWu9N-222" value="SysManager" style="swimlane;fontStyle=1;align=center;verticalAlign=top;childLayout=stackLayout;horizontal=1;startSize=30;horizontalStack=0;resizeParent=1;resizeParentMax=0;resizeLast=0;collapsible=1;marginBottom=0;whiteSpace=wrap;html=1;" parent="1" vertex="1">
          <mxGeometry x="3100" y="1064" width="330" height="64" as="geometry" />
        </mxCell>
        <mxCell id="SJU77nNtgm_mmSQfWu9N-224" value="" style="line;strokeWidth=1;fillColor=none;align=left;verticalAlign=middle;spacingTop=-1;spacingLeft=3;spacingRight=3;rotatable=0;labelPosition=right;points=[];portConstraint=eastwest;strokeColor=inherit;" parent="SJU77nNtgm_mmSQfWu9N-222" vertex="1">
          <mxGeometry y="30" width="330" height="8" as="geometry" />
        </mxCell>
        <mxCell id="SJU77nNtgm_mmSQfWu9N-225" value="+ getSystemPurchaseHistory(): void" style="text;strokeColor=none;fillColor=none;align=left;verticalAlign=top;spacingLeft=4;spacingRight=4;overflow=hidden;rotatable=0;points=[[0,0.5],[1,0.5]];portConstraint=eastwest;whiteSpace=wrap;html=1;" parent="SJU77nNtgm_mmSQfWu9N-222" vertex="1">
          <mxGeometry y="38" width="330" height="26" as="geometry" />
        </mxCell>
        <mxCell id="SJU77nNtgm_mmSQfWu9N-229" style="edgeStyle=orthogonalEdgeStyle;rounded=0;orthogonalLoop=1;jettySize=auto;html=1;exitX=0.635;exitY=0.001;exitDx=0;exitDy=0;entryX=0;entryY=0.5;entryDx=0;entryDy=0;exitPerimeter=0;" parent="1" source="SJU77nNtgm_mmSQfWu9N-107" target="SJU77nNtgm_mmSQfWu9N-225" edge="1">
          <mxGeometry relative="1" as="geometry">
            <mxPoint x="3060" y="1330" as="sourcePoint" />
            <mxPoint x="2910" y="1240" as="targetPoint" />
            <Array as="points">
              <mxPoint x="2880" y="1250" />
              <mxPoint x="3070" y="1250" />
              <mxPoint x="3070" y="1115" />
            </Array>
          </mxGeometry>
        </mxCell>
        <mxCell id="SJU77nNtgm_mmSQfWu9N-230" style="edgeStyle=orthogonalEdgeStyle;rounded=0;orthogonalLoop=1;jettySize=auto;html=1;exitX=0.5;exitY=1;exitDx=0;exitDy=0;entryX=0.5;entryY=0;entryDx=0;entryDy=0;dashed=1;endArrow=open;endFill=0;" parent="1" source="SJU77nNtgm_mmSQfWu9N-71" target="SJU77nNtgm_mmSQfWu9N-86" edge="1">
          <mxGeometry relative="1" as="geometry">
            <mxPoint x="2333" y="11" as="sourcePoint" />
            <mxPoint x="2905" y="440" as="targetPoint" />
            <Array as="points">
              <mxPoint x="2715" y="-230" />
              <mxPoint x="2865" y="-230" />
              <mxPoint x="2865" y="390" />
              <mxPoint x="2895" y="390" />
            </Array>
          </mxGeometry>
        </mxCell>
        <mxCell id="SJU77nNtgm_mmSQfWu9N-231" value="&amp;lt;&amp;lt;use&amp;gt;&amp;gt;" style="edgeLabel;html=1;align=center;verticalAlign=middle;resizable=0;points=[];" parent="SJU77nNtgm_mmSQfWu9N-230" vertex="1" connectable="0">
          <mxGeometry x="-0.9501" y="-1" relative="1" as="geometry">
            <mxPoint y="19" as="offset" />
          </mxGeometry>
        </mxCell>
        <mxCell id="-6XFqcthUhOtIN3Lxx0s-1" style="edgeStyle=orthogonalEdgeStyle;rounded=0;orthogonalLoop=1;jettySize=auto;html=1;exitX=0;exitY=0.5;exitDx=0;exitDy=0;" parent="1" source="FDom4B-1fI0kme8VLFCk-93" target="SJU77nNtgm_mmSQfWu9N-151" edge="1">
          <mxGeometry relative="1" as="geometry">
            <Array as="points">
              <mxPoint x="660" y="1110" />
              <mxPoint x="640" y="1110" />
              <mxPoint x="640" y="1790" />
              <mxPoint x="3060" y="1790" />
              <mxPoint x="3060" y="1298" />
            </Array>
          </mxGeometry>
        </mxCell>
        <mxCell id="EJYcgfiYVMfYpFsEXXHh-1" value="&lt;span style=&quot;font-weight: normal;&quot;&gt;&amp;lt;&amp;lt;interface&amp;gt;&amp;gt;&lt;/span&gt;&lt;div&gt;PermissionsService&lt;/div&gt;&lt;div&gt;&lt;/div&gt;" style="swimlane;fontStyle=1;align=center;verticalAlign=top;childLayout=stackLayout;horizontal=1;startSize=40;horizontalStack=0;resizeParent=1;resizeParentMax=0;resizeLast=0;collapsible=1;marginBottom=0;whiteSpace=wrap;html=1;" vertex="1" parent="1">
          <mxGeometry x="-610" y="-476" width="330" height="210" as="geometry" />
        </mxCell>
        <mxCell id="EJYcgfiYVMfYpFsEXXHh-2" value="" style="line;strokeWidth=1;fillColor=none;align=left;verticalAlign=middle;spacingTop=-1;spacingLeft=3;spacingRight=3;rotatable=0;labelPosition=right;points=[];portConstraint=eastwest;strokeColor=inherit;" vertex="1" parent="EJYcgfiYVMfYpFsEXXHh-1">
          <mxGeometry y="40" width="330" height="8" as="geometry" />
        </mxCell>
        <mxCell id="EJYcgfiYVMfYpFsEXXHh-3" value="+ hasPermission(): bool" style="text;strokeColor=none;fillColor=none;align=left;verticalAlign=top;spacingLeft=4;spacingRight=4;overflow=hidden;rotatable=0;points=[[0,0.5],[1,0.5]];portConstraint=eastwest;whiteSpace=wrap;html=1;" vertex="1" parent="EJYcgfiYVMfYpFsEXXHh-1">
          <mxGeometry y="48" width="330" height="32" as="geometry" />
        </mxCell>
        <mxCell id="EJYcgfiYVMfYpFsEXXHh-26" value="+ addPermission(): void" style="text;strokeColor=none;fillColor=none;align=left;verticalAlign=top;spacingLeft=4;spacingRight=4;overflow=hidden;rotatable=0;points=[[0,0.5],[1,0.5]];portConstraint=eastwest;whiteSpace=wrap;html=1;" vertex="1" parent="EJYcgfiYVMfYpFsEXXHh-1">
          <mxGeometry y="80" width="330" height="26" as="geometry" />
        </mxCell>
        <mxCell id="EJYcgfiYVMfYpFsEXXHh-27" value="+ removePermission(): void" style="text;strokeColor=none;fillColor=none;align=left;verticalAlign=top;spacingLeft=4;spacingRight=4;overflow=hidden;rotatable=0;points=[[0,0.5],[1,0.5]];portConstraint=eastwest;whiteSpace=wrap;html=1;" vertex="1" parent="EJYcgfiYVMfYpFsEXXHh-1">
          <mxGeometry y="106" width="330" height="104" as="geometry" />
        </mxCell>
        <mxCell id="EJYcgfiYVMfYpFsEXXHh-34" style="edgeStyle=orthogonalEdgeStyle;rounded=0;orthogonalLoop=1;jettySize=auto;html=1;exitX=0.5;exitY=1;exitDx=0;exitDy=0;entryX=0.75;entryY=0;entryDx=0;entryDy=0;dashed=1;" edge="1" parent="1" source="EJYcgfiYVMfYpFsEXXHh-9" target="EJYcgfiYVMfYpFsEXXHh-13">
          <mxGeometry relative="1" as="geometry">
            <Array as="points">
              <mxPoint x="-443" y="-186" />
              <mxPoint x="-443" y="188" />
            </Array>
          </mxGeometry>
        </mxCell>
        <mxCell id="EJYcgfiYVMfYpFsEXXHh-35" value="&amp;lt;&amp;lt;use&amp;gt;&amp;gt;" style="edgeLabel;html=1;align=center;verticalAlign=middle;resizable=0;points=[];" vertex="1" connectable="0" parent="EJYcgfiYVMfYpFsEXXHh-34">
          <mxGeometry x="-0.8455" y="-1" relative="1" as="geometry">
            <mxPoint y="-1" as="offset" />
          </mxGeometry>
        </mxCell>
        <mxCell id="EJYcgfiYVMfYpFsEXXHh-9" value="&lt;p style=&quot;margin:0px;margin-top:4px;text-align:center;&quot;&gt;&lt;b&gt;PermissionManager&lt;/b&gt;&lt;/p&gt;&lt;hr size=&quot;1&quot; style=&quot;border-style:solid;&quot;&gt;&lt;div style=&quot;height:2px;&quot;&gt;&lt;/div&gt;" style="verticalAlign=top;align=left;overflow=fill;html=1;whiteSpace=wrap;" vertex="1" parent="1">
          <mxGeometry x="-610" y="-246" width="330" height="60" as="geometry" />
        </mxCell>
        <mxCell id="EJYcgfiYVMfYpFsEXXHh-12" value="&lt;font style=&quot;font-size: 30px;&quot;&gt;Permission&lt;/font&gt;" style="shape=umlFrame;whiteSpace=wrap;html=1;pointerEvents=0;width=240;height=90;" vertex="1" parent="1">
          <mxGeometry x="-740" y="454" width="440" height="686" as="geometry" />
        </mxCell>
        <mxCell id="EJYcgfiYVMfYpFsEXXHh-13" value="&lt;span style=&quot;font-weight: 400;&quot;&gt;PermissionManager&lt;/span&gt;&lt;div&gt;&lt;/div&gt;" style="swimlane;fontStyle=1;align=center;verticalAlign=top;childLayout=stackLayout;horizontal=1;startSize=40;horizontalStack=0;resizeParent=1;resizeParentMax=0;resizeLast=0;collapsible=1;marginBottom=0;whiteSpace=wrap;html=1;" vertex="1" parent="1">
          <mxGeometry x="-690" y="562" width="330" height="178" as="geometry" />
        </mxCell>
        <mxCell id="EJYcgfiYVMfYpFsEXXHh-14" value="- actionPermissionCollection:" style="text;strokeColor=none;fillColor=none;align=left;verticalAlign=top;spacingLeft=4;spacingRight=4;overflow=hidden;rotatable=0;points=[[0,0.5],[1,0.5]];portConstraint=eastwest;whiteSpace=wrap;html=1;" vertex="1" parent="EJYcgfiYVMfYpFsEXXHh-13">
          <mxGeometry y="40" width="330" height="26" as="geometry" />
        </mxCell>
        <mxCell id="EJYcgfiYVMfYpFsEXXHh-28" value="- UserStorePermissionCollection" style="text;strokeColor=none;fillColor=none;align=left;verticalAlign=top;spacingLeft=4;spacingRight=4;overflow=hidden;rotatable=0;points=[[0,0.5],[1,0.5]];portConstraint=eastwest;whiteSpace=wrap;html=1;" vertex="1" parent="EJYcgfiYVMfYpFsEXXHh-13">
          <mxGeometry y="66" width="330" height="26" as="geometry" />
        </mxCell>
        <mxCell id="EJYcgfiYVMfYpFsEXXHh-15" value="" style="line;strokeWidth=1;fillColor=none;align=left;verticalAlign=middle;spacingTop=-1;spacingLeft=3;spacingRight=3;rotatable=0;labelPosition=right;points=[];portConstraint=eastwest;strokeColor=inherit;" vertex="1" parent="EJYcgfiYVMfYpFsEXXHh-13">
          <mxGeometry y="92" width="330" height="8" as="geometry" />
        </mxCell>
        <mxCell id="EJYcgfiYVMfYpFsEXXHh-16" value="+ hasPermission(): bool" style="text;strokeColor=none;fillColor=none;align=left;verticalAlign=top;spacingLeft=4;spacingRight=4;overflow=hidden;rotatable=0;points=[[0,0.5],[1,0.5]];portConstraint=eastwest;whiteSpace=wrap;html=1;" vertex="1" parent="EJYcgfiYVMfYpFsEXXHh-13">
          <mxGeometry y="100" width="330" height="26" as="geometry" />
        </mxCell>
        <mxCell id="EJYcgfiYVMfYpFsEXXHh-22" value="+ addPermission(): void" style="text;strokeColor=none;fillColor=none;align=left;verticalAlign=top;spacingLeft=4;spacingRight=4;overflow=hidden;rotatable=0;points=[[0,0.5],[1,0.5]];portConstraint=eastwest;whiteSpace=wrap;html=1;" vertex="1" parent="EJYcgfiYVMfYpFsEXXHh-13">
          <mxGeometry y="126" width="330" height="26" as="geometry" />
        </mxCell>
        <mxCell id="EJYcgfiYVMfYpFsEXXHh-23" value="+ removePermission(): void" style="text;strokeColor=none;fillColor=none;align=left;verticalAlign=top;spacingLeft=4;spacingRight=4;overflow=hidden;rotatable=0;points=[[0,0.5],[1,0.5]];portConstraint=eastwest;whiteSpace=wrap;html=1;" vertex="1" parent="EJYcgfiYVMfYpFsEXXHh-13">
          <mxGeometry y="152" width="330" height="26" as="geometry" />
        </mxCell>
        <mxCell id="EJYcgfiYVMfYpFsEXXHh-33" style="edgeStyle=orthogonalEdgeStyle;rounded=0;orthogonalLoop=1;jettySize=auto;html=1;exitX=0;exitY=0.5;exitDx=0;exitDy=0;endArrow=diamondThin;endFill=1;entryX=1;entryY=0.5;entryDx=0;entryDy=0;" edge="1" parent="1" source="SJU77nNtgm_mmSQfWu9N-176" target="SJU77nNtgm_mmSQfWu9N-166">
          <mxGeometry relative="1" as="geometry">
            <Array as="points">
              <mxPoint x="3090" y="1456" />
            </Array>
          </mxGeometry>
        </mxCell>
      </root>
    </mxGraphModel>
  </diagram>
</mxfile>
